<svg width="261" height="41" viewBox="0 0 261 41" fill="none" xmlns="http://www.w3.org/2000/svg">
<path d="M27.725 13.9442C27.0639 12.9057 26.1499 12.1083 24.9831 11.552C23.8552 10.9957 22.5134 10.7175 20.9576 10.7175C18.0795 10.7175 15.8043 11.6076 14.1319 13.3879C12.4984 15.1681 11.6816 17.5603 11.6816 20.5645C11.6816 23.9396 12.5567 26.5172 14.3069 28.2975C16.096 30.0406 18.6824 30.9122 22.0661 30.9122C26.0721 30.9122 28.9307 29.1876 30.642 25.7384H19.1491V17.8941H40.5014V28.4644C39.6069 30.5413 38.2845 32.4885 36.5343 34.3058C34.823 36.1231 32.645 37.6252 30.0003 38.8121C27.3556 39.9618 24.3413 40.5367 20.9576 40.5367C16.835 40.5367 13.179 39.7022 9.98977 38.0332C6.83943 36.3271 4.38916 33.972 2.63897 30.9678C0.927671 27.9266 0.0720215 24.4588 0.0720215 20.5645C0.0720215 16.7073 0.927671 13.2766 2.63897 10.2724C4.38916 7.23116 6.83943 4.87604 9.98977 3.20706C13.1401 1.50099 16.7766 0.647949 20.8993 0.647949C26.0721 0.647949 30.3503 1.83478 33.734 4.20845C37.1177 6.58212 39.218 9.82736 40.0347 13.9442H27.725Z" fill="white"/>
<path d="M83.0215 1.03738L68.5533 27.7968V40.2585H57.0603V27.7968L42.5921 1.03738H55.6602L62.8943 16.1695L70.1284 1.03738H83.0215Z" fill="white"/>
<path d="M134.545 1.03738V40.2585H123.111V18.6173L115.352 40.2585H105.784L97.9665 18.4505V40.2585H86.5319V1.03738H100.358L110.685 26.5172L120.777 1.03738H134.545Z" fill="white"/>
<path d="M177.867 1.03738V40.2585H166.432V24.5144H152.489V40.2585H141.054V1.03738H152.489V15.7801H166.432V1.03738H177.867Z" fill="#D51616"/>
<path d="M195.612 1.03738V23.7912C195.612 25.9052 196.117 27.5371 197.128 28.6869C198.179 29.8366 199.754 30.4115 201.854 30.4115C203.954 30.4115 205.529 29.8366 206.58 28.6869C207.669 27.5001 208.213 25.8682 208.213 23.7912V1.03738H219.648V23.7912C219.648 27.3888 218.85 30.4671 217.256 33.0263C215.661 35.5483 213.483 37.4583 210.722 38.7564C207.999 40.0174 204.965 40.6479 201.621 40.6479C198.276 40.6479 195.281 40.0174 192.636 38.7564C190.03 37.4583 187.969 35.5483 186.452 33.0263C184.974 30.5042 184.235 27.4259 184.235 23.7912V1.03738H195.612Z" fill="#C000BD"/>
<path d="M252.196 20.1194C254.608 20.6387 256.513 21.7884 257.913 23.5687C259.353 25.3118 260.072 27.3146 260.072 29.577C260.072 32.915 258.866 35.5297 256.455 37.4212C254.044 39.3128 250.66 40.2585 246.304 40.2585H225.943V1.03738H245.662C249.863 1.03738 253.149 1.9275 255.522 3.70775C257.933 5.488 259.139 7.99148 259.139 11.2182C259.139 13.5177 258.497 15.4463 257.213 17.004C255.969 18.5246 254.296 19.5631 252.196 20.1194ZM237.378 16.6146H243.154C246.032 16.6146 247.471 15.4834 247.471 13.221C247.471 10.8844 246.032 9.7161 243.154 9.7161H237.378V16.6146ZM244.029 31.4685C246.907 31.4685 248.346 30.3188 248.346 28.0193C248.346 26.8325 247.957 25.9238 247.179 25.2933C246.44 24.6628 245.37 24.3475 243.97 24.3475H237.378V31.4685H244.029Z" fill="#70D70A"/>
</svg>
