<svg width="400" height="157" viewBox="0 0 400 157" fill="none" xmlns="http://www.w3.org/2000/svg">
<mask id="path-1-outside-1_2038_7" maskUnits="userSpaceOnUse" x="0.449951" y="0.599976" width="400" height="156" fill="black">
<rect fill="white" x="0.449951" y="0.599976" width="400" height="156"/>
<path d="M22.61 48.94C24.3833 48.94 25.9 48.7066 27.16 48.24C28.42 47.7266 29.3766 46.98 30.03 46C30.73 44.9733 31.08 43.6666 31.08 42.08C31.08 40.7733 30.7533 39.7 30.1 38.86C29.4933 37.9733 28.6066 37.2033 27.44 36.55C26.2733 35.8966 24.8733 35.3133 23.24 34.8C21.6066 34.24 19.81 33.68 17.85 33.12C16.03 32.56 14.2566 31.9066 12.53 31.16C10.85 30.3666 9.30995 29.3633 7.90995 28.15C6.55662 26.9366 5.45995 25.4433 4.61995 23.67C3.82662 21.8966 3.42995 19.75 3.42995 17.23C3.42995 14.1033 4.19995 11.4666 5.73995 9.31998C7.27995 7.12664 9.30995 5.46998 11.83 4.34997C14.3966 3.18331 17.1966 2.59998 20.23 2.59998C22.89 2.59998 25.2233 2.97331 27.23 3.71997C29.2366 4.41998 30.94 5.53998 32.34 7.07998C33.7866 8.61998 34.9766 10.65 35.91 13.17L32.62 12.4L33.88 3.29997H38.29V16.39H33.46C32.8533 14.4766 31.9666 12.8433 30.8 11.49C29.6333 10.1366 28.28 9.10998 26.74 8.40998C25.2 7.66331 23.52 7.28997 21.7 7.28997C20.0666 7.28997 18.69 7.54664 17.57 8.05998C16.45 8.52664 15.5866 9.20331 14.98 10.09C14.42 10.9766 14.14 12.05 14.14 13.31C14.14 14.57 14.4433 15.6433 15.05 16.53C15.7033 17.37 16.59 18.0933 17.71 18.7C18.83 19.26 20.1366 19.75 21.63 20.17C23.1233 20.59 24.7333 21.0333 26.46 21.5C28.4666 22.06 30.4033 22.7366 32.27 23.53C34.1366 24.2766 35.7933 25.2333 37.24 26.4C38.7333 27.5666 39.9 29.0366 40.74 30.81C41.58 32.5366 42 34.6833 42 37.25C42 40.5633 41.2533 43.4566 39.76 45.93C38.2666 48.4033 36.1433 50.3166 33.39 51.67C30.6833 53.0233 27.44 53.7 23.66 53.7C20.9066 53.7 18.3166 53.3033 15.89 52.51C13.4633 51.67 11.3166 50.34 9.44995 48.52C7.58328 46.7 6.11328 44.2966 5.03995 41.31L8.32995 42.64L7.06995 53H2.44995V37.6H7.69995C8.58662 40.0266 9.75329 42.1033 11.2 43.83C12.6933 45.51 14.42 46.7933 16.38 47.68C18.34 48.52 20.4166 48.94 22.61 48.94Z"/>
<path d="M60.0277 46.7V7.84997H57.0877C55.501 7.84997 54.1944 7.94331 53.1677 8.12998C52.141 8.26998 51.371 8.57331 50.8577 9.03998C50.3444 9.50664 50.041 10.16 49.9477 11L48.9677 18.91H44.1377V3.29997H89.4277V18.91H84.5977L83.6877 11C83.5944 10.16 83.291 9.50664 82.7777 9.03998C82.2644 8.57331 81.4944 8.26998 80.4677 8.12998C79.441 7.94331 78.111 7.84997 76.4777 7.84997H73.5377V46.7C73.5377 47.68 73.9344 48.3333 74.7277 48.66C75.521 48.94 76.501 49.08 77.6677 49.08H78.7177V53H54.9177V49.08H55.9677C57.1344 49.08 58.091 48.94 58.8377 48.66C59.631 48.3333 60.0277 47.68 60.0277 46.7Z"/>
<path d="M116.385 30.39L129.125 28.85L137.945 47.12C138.225 47.68 138.528 48.1 138.855 48.38C139.228 48.66 139.625 48.8466 140.045 48.94C140.465 49.0333 140.955 49.08 141.515 49.08H141.935V53H126.115L116.385 30.39ZM111.835 48.38C111.835 48.52 111.951 48.6366 112.185 48.73C112.418 48.7766 112.721 48.8466 113.095 48.94C113.468 48.9866 113.865 49.0333 114.285 49.08C114.751 49.08 115.195 49.08 115.615 49.08H116.315V53H93.5648V49.08H94.1948C95.4081 49.08 96.3881 48.94 97.1348 48.66C97.9281 48.3333 98.3248 47.68 98.3248 46.7V9.59998C98.3248 8.61998 97.9281 7.98998 97.1348 7.70998C96.3881 7.38331 95.4081 7.21997 94.1948 7.21997H93.5648V3.29997H118.905C123.011 3.29997 126.488 3.88331 129.335 5.04997C132.181 6.21664 134.351 7.84998 135.845 9.94998C137.385 12.05 138.155 14.5 138.155 17.3C138.155 20.1 137.455 22.5733 136.055 24.72C134.655 26.82 132.601 28.4766 129.895 29.69C127.188 30.9033 123.898 31.6033 120.025 31.79C119.791 31.8366 119.511 31.8833 119.185 31.93C118.905 31.93 118.601 31.9533 118.275 32C117.995 32 117.691 32 117.365 32H110.085V27.59H116.245C118.111 27.59 119.628 27.2166 120.795 26.47C121.961 25.6766 122.825 24.51 123.385 22.97C123.945 21.43 124.225 19.54 124.225 17.3C124.225 15.2466 123.945 13.52 123.385 12.12C122.825 10.6733 121.961 9.59998 120.795 8.89997C119.675 8.15331 118.275 7.77998 116.595 7.77998H111.835V48.38Z"/>
<path d="M185.563 37.53V53H145.313V49.08H145.943C147.156 49.08 148.136 48.9166 148.883 48.59C149.676 48.2633 150.073 47.5866 150.073 46.56V9.73998C150.073 8.71331 149.676 8.03664 148.883 7.70998C148.136 7.38331 147.156 7.21997 145.943 7.21997H145.313V3.29997H183.743V17.02H179.053L178.213 11C178.12 10.16 177.77 9.50664 177.163 9.03998C176.603 8.57331 175.81 8.26998 174.783 8.12998C173.756 7.94331 172.496 7.84997 171.003 7.84997H163.583V48.45H171.493C172.893 48.45 174.083 48.4033 175.063 48.31C176.09 48.2166 176.906 48.0533 177.513 47.82C178.166 47.5866 178.656 47.26 178.983 46.84C179.31 46.42 179.52 45.8833 179.613 45.23L180.663 37.53H185.563ZM161.833 25.56C163.886 25.4666 165.823 25.3733 167.643 25.28C169.463 25.14 171.213 25 172.893 24.86C174.573 24.6733 176.253 24.4866 177.933 24.3V30.88C176.253 30.6466 174.55 30.46 172.823 30.32C171.143 30.1333 169.393 29.97 167.573 29.83C165.8 29.69 163.886 29.5966 161.833 29.55V25.56Z"/>
<path d="M190.225 53V49.08H190.925C191.718 49.08 192.418 48.9866 193.025 48.8C193.632 48.6133 194.098 48.2866 194.425 47.82C194.798 47.3533 194.985 46.77 194.985 46.07V9.59998C194.985 8.94664 194.798 8.45664 194.425 8.12998C194.098 7.75664 193.632 7.52331 193.025 7.42998C192.418 7.28998 191.718 7.21997 190.925 7.21997H190.225V3.29997H211.435L230.825 40.96L229.215 41.94V8.40998C229.215 8.12998 228.982 7.91998 228.515 7.77998C228.095 7.59331 227.535 7.45331 226.835 7.35998C226.182 7.26664 225.458 7.21997 224.665 7.21997H223.685V3.29997H239.015V7.21997H238.315C237.522 7.21997 236.822 7.31331 236.215 7.49998C235.608 7.63998 235.118 7.91998 234.745 8.33998C234.372 8.71331 234.185 9.27331 234.185 10.02V53H222.635L198.205 5.81998L200.025 6.09998V47.89C200.025 48.1233 200.235 48.3333 200.655 48.52C201.122 48.7066 201.682 48.8466 202.335 48.94C203.035 49.0333 203.782 49.08 204.575 49.08H205.555V53H190.225Z"/>
<path d="M289.415 34.24V45.65C288.715 46.5366 287.688 47.47 286.335 48.45C285.028 49.3833 283.465 50.2466 281.645 51.04C279.825 51.8333 277.842 52.4866 275.695 53C273.548 53.4666 271.262 53.7 268.835 53.7C265.008 53.7 261.508 53.0933 258.335 51.88C255.162 50.6666 252.432 48.94 250.145 46.7C247.858 44.46 246.108 41.7766 244.895 38.65C243.682 35.5233 243.075 32.0233 243.075 28.15C243.075 24.4166 243.705 20.9866 244.965 17.86C246.225 14.7333 247.998 12.0266 250.285 9.73998C252.618 7.45331 255.302 5.70331 258.335 4.48998C261.415 3.22998 264.728 2.59998 268.275 2.59998C271.682 2.59998 274.528 3.13664 276.815 4.20998C279.102 5.28331 280.945 6.75331 282.345 8.61998C283.745 10.4866 284.818 12.6333 285.565 15.06L282.135 14.01L283.465 3.29997H288.155V18.56H282.905C282.298 16.3666 281.412 14.4533 280.245 12.82C279.125 11.1866 277.725 9.90331 276.045 8.96998C274.365 7.98998 272.382 7.49998 270.095 7.49998C268.088 7.49998 266.292 7.96664 264.705 8.89997C263.118 9.83331 261.765 11.1866 260.645 12.96C259.525 14.6866 258.662 16.8333 258.055 19.4C257.448 21.9666 257.145 24.8833 257.145 28.15C257.145 31.6033 257.425 34.6366 257.985 37.25C258.592 39.8633 259.432 42.0333 260.505 43.76C261.625 45.4866 262.955 46.77 264.495 47.61C266.035 48.45 267.762 48.87 269.675 48.87C271.028 48.87 272.172 48.73 273.105 48.45C274.085 48.1233 274.902 47.75 275.555 47.33C276.255 46.8633 276.768 46.4433 277.095 46.07V34.24C277.095 33.2133 276.698 32.56 275.905 32.28C275.158 31.9533 274.155 31.79 272.895 31.79H272.265V27.94H293.195V31.79H292.705C291.818 31.79 291.048 31.9533 290.395 32.28C289.742 32.56 289.415 33.2133 289.415 34.24Z"/>
<path d="M311.112 46.7V7.84997H308.172C306.585 7.84997 305.278 7.94331 304.252 8.12998C303.225 8.26998 302.455 8.57331 301.942 9.03998C301.428 9.50664 301.125 10.16 301.032 11L300.052 18.91H295.222V3.29997H340.512V18.91H335.682L334.772 11C334.678 10.16 334.375 9.50664 333.862 9.03998C333.348 8.57331 332.578 8.26998 331.552 8.12998C330.525 7.94331 329.195 7.84997 327.562 7.84997H324.622V46.7C324.622 47.68 325.018 48.3333 325.812 48.66C326.605 48.94 327.585 49.08 328.752 49.08H329.802V53H306.002V49.08H307.052C308.218 49.08 309.175 48.94 309.922 48.66C310.715 48.3333 311.112 47.68 311.112 46.7Z"/>
<path d="M355.989 25.07H385.179V29.69H355.989V25.07ZM344.649 53V49.08H345.279C346.492 49.08 347.472 48.94 348.219 48.66C349.012 48.3333 349.409 47.6566 349.409 46.63V9.66998C349.409 8.64331 349.012 7.98998 348.219 7.70998C347.472 7.38331 346.492 7.21997 345.279 7.21997H344.649V3.29997H367.749V7.21997H367.119C366.652 7.21997 366.162 7.24331 365.649 7.28997C365.182 7.28997 364.739 7.31331 364.319 7.35998C363.899 7.40664 363.572 7.47664 363.339 7.56997C363.105 7.61664 362.989 7.70998 362.989 7.84997V48.45C362.989 48.59 363.105 48.7066 363.339 48.8C363.572 48.8466 363.899 48.8933 364.319 48.94C364.739 48.9866 365.182 49.0333 365.649 49.08C366.162 49.08 366.652 49.08 367.119 49.08H367.749V53H344.649ZM374.749 53V49.08H375.379C375.845 49.08 376.312 49.08 376.779 49.08C377.292 49.0333 377.735 48.9866 378.109 48.94C378.529 48.8933 378.855 48.8466 379.089 48.8C379.369 48.7066 379.509 48.59 379.509 48.45V7.84997C379.509 7.70998 379.369 7.61664 379.089 7.56997C378.855 7.47664 378.529 7.40664 378.109 7.35998C377.735 7.31331 377.292 7.28997 376.779 7.28997C376.312 7.24331 375.822 7.21997 375.309 7.21997H374.749V3.29997H397.849V7.21997H397.149C395.982 7.21997 395.002 7.38331 394.209 7.70998C393.415 7.98998 393.019 8.64331 393.019 9.66998V46.63C393.019 47.6566 393.415 48.3333 394.209 48.66C395.002 48.94 395.982 49.08 397.149 49.08H397.849V53H374.749Z"/>
<path d="M157.64 92C157.64 91.52 157.507 91.12 157.24 90.8C156.973 90.4533 156.6 90.1733 156.12 89.96C155.667 89.7466 155.147 89.56 154.56 89.4C153.973 89.2133 153.347 89.04 152.68 88.88C151.853 88.64 151.027 88.3866 150.2 88.12C149.4 87.8266 148.653 87.4533 147.96 87C147.293 86.52 146.747 85.92 146.32 85.2C145.92 84.4533 145.72 83.52 145.72 82.4C145.72 81.0666 146.067 79.9333 146.76 79C147.48 78.04 148.467 77.32 149.72 76.84C151 76.3333 152.493 76.08 154.2 76.08C155.587 76.08 156.787 76.1866 157.8 76.4C158.813 76.6133 159.64 76.8666 160.28 77.16C160.947 77.4533 161.413 77.7066 161.68 77.92V82.08H157.24V78.4C157.587 78.4 157.853 78.4533 158.04 78.56C158.253 78.6666 158.4 78.8266 158.48 79.04C158.56 79.2266 158.587 79.4266 158.56 79.64C158.533 79.8533 158.48 80.0666 158.4 80.28C158.107 79.9333 157.747 79.64 157.32 79.4C156.92 79.1333 156.467 78.9466 155.96 78.84C155.453 78.7066 154.88 78.64 154.24 78.64C153.093 78.64 152.227 78.88 151.64 79.36C151.08 79.8133 150.8 80.4133 150.8 81.16C150.8 81.6933 150.933 82.1333 151.2 82.48C151.493 82.8 151.88 83.08 152.36 83.32C152.84 83.5333 153.387 83.7333 154 83.92C154.64 84.1066 155.307 84.28 156 84.44C156.827 84.6533 157.653 84.9066 158.48 85.2C159.307 85.4933 160.067 85.8666 160.76 86.32C161.453 86.7733 162 87.36 162.4 88.08C162.827 88.7733 163.04 89.6533 163.04 90.72C163.04 92.08 162.68 93.2666 161.96 94.28C161.24 95.2666 160.187 96.04 158.8 96.6C157.413 97.1333 155.72 97.4 153.72 97.4C152.333 97.4 151.08 97.28 149.96 97.04C148.84 96.8266 147.867 96.56 147.04 96.24C146.24 95.8933 145.573 95.56 145.04 95.24V90.72H149.6V95.52C149.173 95.3066 148.84 95.08 148.6 94.84C148.387 94.5733 148.24 94.32 148.16 94.08C148.08 93.8133 148.067 93.5866 148.12 93.4C148.2 93.1866 148.32 93.0133 148.48 92.88C148.88 93.3333 149.333 93.7066 149.84 94C150.373 94.2666 150.96 94.48 151.6 94.64C152.267 94.7733 152.973 94.84 153.72 94.84C154.547 94.84 155.24 94.7333 155.8 94.52C156.387 94.3066 156.84 93.9866 157.16 93.56C157.48 93.1333 157.64 92.6133 157.64 92Z"/>
<path d="M164.24 79.04V76.72H164.36C165.027 76.72 165.6 76.6666 166.08 76.56C166.56 76.4533 166.933 76.2666 167.2 76C167.467 75.7066 167.6 75.3066 167.6 74.8L170.96 76.52H178.68V79.04H164.24ZM173.28 90.16C173.28 91.2533 173.4 92.12 173.64 92.76C173.907 93.3733 174.267 93.8266 174.72 94.12C175.2 94.3866 175.773 94.52 176.44 94.52C176.973 94.52 177.467 94.4666 177.92 94.36C178.373 94.2266 178.733 94.12 179 94.04V96.72C178.787 96.8266 178.48 96.9333 178.08 97.04C177.68 97.1466 177.227 97.2266 176.72 97.28C176.213 97.36 175.653 97.4 175.04 97.4C173.6 97.4 172.28 97.1866 171.08 96.76C169.907 96.3066 168.973 95.5466 168.28 94.48C167.587 93.4133 167.24 91.9733 167.24 90.16V77.16L167.56 76.88L167.64 70.96H173.28V90.16Z"/>
<path d="M194.545 84.68L194.505 86.84C193.465 86.9733 192.532 87.1466 191.705 87.36C190.878 87.5466 190.158 87.7866 189.545 88.08C188.932 88.3466 188.425 88.6666 188.025 89.04C187.652 89.3866 187.372 89.7866 187.185 90.24C186.998 90.6933 186.905 91.2 186.905 91.76C186.905 92.4 187.012 92.9466 187.225 93.4C187.465 93.8266 187.798 94.16 188.225 94.4C188.652 94.6133 189.145 94.72 189.705 94.72C190.452 94.72 191.105 94.5333 191.665 94.16C192.252 93.7866 192.772 93.2666 193.225 92.6C193.678 91.9066 194.078 91.1066 194.425 90.2L194.505 92.76C194.132 93.72 193.625 94.5466 192.985 95.24C192.345 95.9333 191.585 96.4666 190.705 96.84C189.825 97.2133 188.812 97.4 187.665 97.4C186.385 97.4 185.252 97.2 184.265 96.8C183.278 96.3733 182.505 95.76 181.945 94.96C181.412 94.1333 181.145 93.1466 181.145 92C181.145 90.88 181.425 89.92 181.985 89.12C182.545 88.32 183.385 87.64 184.505 87.08C185.652 86.4933 187.052 86.0133 188.705 85.64C190.385 85.24 192.332 84.92 194.545 84.68ZM193.985 97V92.96H193.545V82.36C193.545 81.48 193.425 80.7733 193.185 80.24C192.945 79.7066 192.572 79.3333 192.065 79.12C191.585 78.88 190.985 78.76 190.265 78.76C189.198 78.76 188.305 78.9866 187.585 79.44C186.892 79.8933 186.345 80.44 185.945 81.08C185.785 80.7866 185.705 80.52 185.705 80.28C185.732 80.0133 185.812 79.7733 185.945 79.56C186.078 79.3466 186.265 79.16 186.505 79C186.772 78.84 187.065 78.72 187.385 78.64V82.92H182.505V78.68C182.878 78.3866 183.438 78.04 184.185 77.64C184.958 77.24 185.905 76.8933 187.025 76.6C188.145 76.28 189.425 76.12 190.865 76.12C192.092 76.12 193.225 76.2533 194.265 76.52C195.305 76.76 196.212 77.16 196.985 77.72C197.785 78.2533 198.398 78.96 198.825 79.84C199.278 80.6933 199.505 81.7333 199.505 82.96V93.48C199.505 93.8 199.598 94.0533 199.785 94.24C199.972 94.4 200.238 94.52 200.585 94.6C200.958 94.68 201.385 94.7333 201.865 94.76L201.985 94.8V97H193.985Z"/>
<path d="M219.157 76.36V81.68C218.943 81.6266 218.703 81.5733 218.437 81.52C218.197 81.4666 217.93 81.4266 217.637 81.4C217.37 81.3733 217.09 81.36 216.797 81.36C216.157 81.36 215.57 81.44 215.037 81.6C214.53 81.7333 214.063 81.9466 213.637 82.24C213.21 82.5333 212.823 82.92 212.477 83.4C212.13 83.88 211.783 84.4666 211.437 85.16V82.88C211.81 81.5733 212.263 80.4266 212.797 79.44C213.357 78.4266 214.023 77.64 214.797 77.08C215.597 76.4933 216.557 76.2 217.677 76.2C217.997 76.2 218.29 76.2133 218.557 76.24C218.823 76.2666 219.023 76.3066 219.157 76.36ZM203.637 97V94.84H203.677C204.397 94.84 204.983 94.76 205.437 94.6C205.917 94.44 206.157 94.1066 206.157 93.6V80.32C206.157 80 206.077 79.76 205.917 79.6C205.783 79.4133 205.557 79.2666 205.237 79.16C204.917 79.0266 204.503 78.9066 203.997 78.8L203.637 78.72V76.52H211.797V82.8L212.237 82.4V94C212.237 94.24 212.383 94.4266 212.677 94.56C212.997 94.6933 213.37 94.7733 213.797 94.8C214.25 94.8266 214.65 94.84 214.997 94.84H215.477V97H203.637Z"/>
<path d="M220.842 79.04V76.72H220.962C221.628 76.72 222.202 76.6666 222.682 76.56C223.162 76.4533 223.535 76.2666 223.802 76C224.068 75.7066 224.202 75.3066 224.202 74.8L227.562 76.52H235.282V79.04H220.842ZM229.882 90.16C229.882 91.2533 230.002 92.12 230.242 92.76C230.508 93.3733 230.868 93.8266 231.322 94.12C231.802 94.3866 232.375 94.52 233.042 94.52C233.575 94.52 234.068 94.4666 234.522 94.36C234.975 94.2266 235.335 94.12 235.602 94.04V96.72C235.388 96.8266 235.082 96.9333 234.682 97.04C234.282 97.1466 233.828 97.2266 233.322 97.28C232.815 97.36 232.255 97.4 231.642 97.4C230.202 97.4 228.882 97.1866 227.682 96.76C226.508 96.3066 225.575 95.5466 224.882 94.48C224.188 93.4133 223.842 91.9733 223.842 90.16V77.16L224.162 76.88L224.242 70.96H229.882V90.16Z"/>
<path d="M250.14 92C250.14 91.52 250.007 91.12 249.74 90.8C249.473 90.4533 249.1 90.1733 248.62 89.96C248.167 89.7466 247.647 89.56 247.06 89.4C246.473 89.2133 245.847 89.04 245.18 88.88C244.353 88.64 243.527 88.3866 242.7 88.12C241.9 87.8266 241.153 87.4533 240.46 87C239.793 86.52 239.247 85.92 238.82 85.2C238.42 84.4533 238.22 83.52 238.22 82.4C238.22 81.0666 238.567 79.9333 239.26 79C239.98 78.04 240.967 77.32 242.22 76.84C243.5 76.3333 244.993 76.08 246.7 76.08C248.087 76.08 249.287 76.1866 250.3 76.4C251.313 76.6133 252.14 76.8666 252.78 77.16C253.447 77.4533 253.913 77.7066 254.18 77.92V82.08H249.74V78.4C250.087 78.4 250.353 78.4533 250.54 78.56C250.753 78.6666 250.9 78.8266 250.98 79.04C251.06 79.2266 251.087 79.4266 251.06 79.64C251.033 79.8533 250.98 80.0666 250.9 80.28C250.607 79.9333 250.247 79.64 249.82 79.4C249.42 79.1333 248.967 78.9466 248.46 78.84C247.953 78.7066 247.38 78.64 246.74 78.64C245.593 78.64 244.727 78.88 244.14 79.36C243.58 79.8133 243.3 80.4133 243.3 81.16C243.3 81.6933 243.433 82.1333 243.7 82.48C243.993 82.8 244.38 83.08 244.86 83.32C245.34 83.5333 245.887 83.7333 246.5 83.92C247.14 84.1066 247.807 84.28 248.5 84.44C249.327 84.6533 250.153 84.9066 250.98 85.2C251.807 85.4933 252.567 85.8666 253.26 86.32C253.953 86.7733 254.5 87.36 254.9 88.08C255.327 88.7733 255.54 89.6533 255.54 90.72C255.54 92.08 255.18 93.2666 254.46 94.28C253.74 95.2666 252.687 96.04 251.3 96.6C249.913 97.1333 248.22 97.4 246.22 97.4C244.833 97.4 243.58 97.28 242.46 97.04C241.34 96.8266 240.367 96.56 239.54 96.24C238.74 95.8933 238.073 95.56 237.54 95.24V90.72H242.1V95.52C241.673 95.3066 241.34 95.08 241.1 94.84C240.887 94.5733 240.74 94.32 240.66 94.08C240.58 93.8133 240.567 93.5866 240.62 93.4C240.7 93.1866 240.82 93.0133 240.98 92.88C241.38 93.3333 241.833 93.7066 242.34 94C242.873 94.2666 243.46 94.48 244.1 94.64C244.767 94.7733 245.473 94.84 246.22 94.84C247.047 94.84 247.74 94.7333 248.3 94.52C248.887 94.3066 249.34 93.9866 249.66 93.56C249.98 93.1333 250.14 92.6133 250.14 92Z"/>
<path d="M126.55 134.1H147.8V137.35H126.55V134.1ZM118.7 154V151.25H119.2C120.167 151.25 120.967 151.133 121.6 150.9C122.267 150.667 122.6 150.2 122.6 149.5V123C122.6 122.3 122.267 121.833 121.6 121.6C120.967 121.367 120.167 121.25 119.2 121.25H118.7V118.5H134.45V121.25H134C133.633 121.25 133.25 121.267 132.85 121.3C132.45 121.3 132.067 121.333 131.7 121.4C131.367 121.433 131.1 121.483 130.9 121.55C130.7 121.583 130.6 121.633 130.6 121.7V150.8C130.6 150.867 130.7 150.933 130.9 151C131.1 151.033 131.367 151.083 131.7 151.15C132.067 151.183 132.45 151.217 132.85 151.25C133.25 151.25 133.633 151.25 134 151.25H134.45V154H118.7ZM140.7 154V151.25H141.15C141.517 151.25 141.9 151.25 142.3 151.25C142.7 151.217 143.067 151.183 143.4 151.15C143.733 151.083 144 151.033 144.2 151C144.433 150.933 144.55 150.867 144.55 150.8V121.7C144.55 121.633 144.433 121.583 144.2 121.55C144 121.483 143.733 121.433 143.4 121.4C143.067 121.333 142.7 121.3 142.3 121.3C141.9 121.267 141.5 121.25 141.1 121.25H140.7V118.5H156.4V121.25H155.9C154.933 121.25 154.133 121.367 153.5 121.6C152.867 121.833 152.55 122.3 152.55 123V149.5C152.55 150.2 152.867 150.667 153.5 150.9C154.133 151.133 154.933 151.25 155.9 151.25H156.4V154H140.7Z"/>
<path d="M187.962 142.95V154H159.862V151.25H160.362C161.329 151.25 162.129 151.133 162.762 150.9C163.429 150.667 163.762 150.183 163.762 149.45V123.05C163.762 122.317 163.429 121.833 162.762 121.6C162.129 121.367 161.329 121.25 160.362 121.25H159.862V118.5H186.662V128.3H183.312L182.812 124C182.712 123.367 182.462 122.9 182.062 122.6C181.662 122.267 181.062 122.05 180.262 121.95C179.462 121.817 178.462 121.75 177.262 121.75H171.712V150.75H178.012C179.012 150.75 179.879 150.733 180.612 150.7C181.345 150.633 181.945 150.517 182.412 150.35C182.879 150.15 183.229 149.9 183.462 149.6C183.729 149.3 183.895 148.933 183.962 148.5L184.562 142.95H187.962ZM170.412 134.4C171.845 134.333 173.212 134.283 174.512 134.25C175.845 134.183 177.145 134.1 178.412 134C179.679 133.9 180.929 133.8 182.162 133.7V138C180.929 137.867 179.679 137.767 178.412 137.7C177.145 137.6 175.845 137.517 174.512 137.45C173.212 137.35 171.845 137.283 170.412 137.25V134.4Z"/>
<path d="M207.944 137.9L215.494 137L222.144 149.85C222.344 150.25 222.578 150.55 222.844 150.75C223.111 150.95 223.411 151.083 223.744 151.15C224.111 151.217 224.528 151.25 224.994 151.25H225.344V154H215.394L207.944 137.9ZM203.694 150.75C203.694 150.85 203.778 150.933 203.944 151C204.144 151.033 204.394 151.083 204.694 151.15C204.994 151.183 205.328 151.217 205.694 151.25C206.061 151.25 206.428 151.25 206.794 151.25H207.344V154H191.844V151.25H192.344C193.311 151.25 194.111 151.15 194.744 150.95C195.411 150.717 195.744 150.233 195.744 149.5V123C195.744 122.267 195.411 121.8 194.744 121.6C194.111 121.367 193.311 121.25 192.344 121.25H191.844V118.5H208.744C211.611 118.5 214.028 118.917 215.994 119.75C217.994 120.583 219.528 121.767 220.594 123.3C221.661 124.8 222.194 126.567 222.194 128.6C222.194 130.5 221.744 132.183 220.844 133.65C219.944 135.083 218.644 136.25 216.944 137.15C215.244 138.017 213.161 138.567 210.694 138.8C210.428 138.833 210.144 138.867 209.844 138.9C209.544 138.933 209.228 138.967 208.894 139C208.594 139.033 208.278 139.05 207.944 139.05H202.594V135.95H207.394C208.894 135.95 210.128 135.667 211.094 135.1C212.061 134.5 212.761 133.65 213.194 132.55C213.661 131.45 213.894 130.133 213.894 128.6C213.894 127.133 213.661 125.9 213.194 124.9C212.728 123.867 212.028 123.083 211.094 122.55C210.161 121.983 208.994 121.7 207.594 121.7H203.694V150.75Z"/>
<path d="M256.077 142.95V154H227.977V151.25H228.477C229.444 151.25 230.244 151.133 230.877 150.9C231.544 150.667 231.877 150.183 231.877 149.45V123.05C231.877 122.317 231.544 121.833 230.877 121.6C230.244 121.367 229.444 121.25 228.477 121.25H227.977V118.5H254.777V128.3H251.427L250.927 124C250.827 123.367 250.577 122.9 250.177 122.6C249.777 122.267 249.177 122.05 248.377 121.95C247.577 121.817 246.577 121.75 245.377 121.75H239.827V150.75H246.127C247.127 150.75 247.994 150.733 248.727 150.7C249.461 150.633 250.061 150.517 250.527 150.35C250.994 150.15 251.344 149.9 251.577 149.6C251.844 149.3 252.011 148.933 252.077 148.5L252.677 142.95H256.077ZM238.527 134.4C239.961 134.333 241.327 134.283 242.627 134.25C243.961 134.183 245.261 134.1 246.527 134C247.794 133.9 249.044 133.8 250.277 133.7V138C249.044 137.867 247.794 137.767 246.527 137.7C245.261 137.6 243.961 137.517 242.627 137.45C241.327 137.35 239.961 137.283 238.527 137.25V134.4Z"/>
<path d="M265.506 154.45C264.173 154.45 263.106 154.083 262.306 153.35C261.506 152.583 261.106 151.6 261.106 150.4C261.106 149.2 261.506 148.233 262.306 147.5C263.106 146.733 264.173 146.35 265.506 146.35C266.873 146.35 267.956 146.733 268.756 147.5C269.556 148.233 269.956 149.2 269.956 150.4C269.956 151.6 269.556 152.583 268.756 153.35C267.956 154.083 266.873 154.45 265.506 154.45Z"/>
<path d="M284.164 117.65C284.164 119.383 284.097 121.017 283.964 122.55C283.831 124.083 283.664 125.567 283.464 127C283.264 128.433 283.064 129.933 282.864 131.5C282.664 133.033 282.497 134.683 282.364 136.45C282.231 138.217 282.164 140.2 282.164 142.4H278.064C278.064 140.2 277.997 138.217 277.864 136.45C277.731 134.683 277.564 133.033 277.364 131.5C277.164 129.967 276.964 128.483 276.764 127.05C276.564 125.583 276.397 124.1 276.264 122.6C276.131 121.067 276.064 119.417 276.064 117.65H284.164ZM280.064 154.45C281.464 154.45 282.547 154.083 283.314 153.35C284.114 152.583 284.514 151.6 284.514 150.4C284.514 149.2 284.114 148.233 283.314 147.5C282.547 146.733 281.464 146.35 280.064 146.35C278.731 146.35 277.664 146.733 276.864 147.5C276.064 148.233 275.664 149.2 275.664 150.4C275.664 151.6 276.064 152.583 276.864 153.35C277.664 154.083 278.731 154.45 280.064 154.45Z"/>
<path d="M299.008 117.65C299.008 119.383 298.941 121.017 298.808 122.55C298.674 124.083 298.508 125.567 298.308 127C298.108 128.433 297.908 129.933 297.708 131.5C297.508 133.033 297.341 134.683 297.208 136.45C297.074 138.217 297.008 140.2 297.008 142.4H292.908C292.908 140.2 292.841 138.217 292.708 136.45C292.574 134.683 292.408 133.033 292.208 131.5C292.008 129.967 291.808 128.483 291.608 127.05C291.408 125.583 291.241 124.1 291.108 122.6C290.974 121.067 290.908 119.417 290.908 117.65H299.008ZM294.908 154.45C296.308 154.45 297.391 154.083 298.158 153.35C298.958 152.583 299.358 151.6 299.358 150.4C299.358 149.2 298.958 148.233 298.158 147.5C297.391 146.733 296.308 146.35 294.908 146.35C293.574 146.35 292.508 146.733 291.708 147.5C290.908 148.233 290.508 149.2 290.508 150.4C290.508 151.6 290.908 152.583 291.708 153.35C292.508 154.083 293.574 154.45 294.908 154.45Z"/>
</mask>
<path d="M22.61 48.94C24.3833 48.94 25.9 48.7066 27.16 48.24C28.42 47.7266 29.3766 46.98 30.03 46C30.73 44.9733 31.08 43.6666 31.08 42.08C31.08 40.7733 30.7533 39.7 30.1 38.86C29.4933 37.9733 28.6066 37.2033 27.44 36.55C26.2733 35.8966 24.8733 35.3133 23.24 34.8C21.6066 34.24 19.81 33.68 17.85 33.12C16.03 32.56 14.2566 31.9066 12.53 31.16C10.85 30.3666 9.30995 29.3633 7.90995 28.15C6.55662 26.9366 5.45995 25.4433 4.61995 23.67C3.82662 21.8966 3.42995 19.75 3.42995 17.23C3.42995 14.1033 4.19995 11.4666 5.73995 9.31998C7.27995 7.12664 9.30995 5.46998 11.83 4.34997C14.3966 3.18331 17.1966 2.59998 20.23 2.59998C22.89 2.59998 25.2233 2.97331 27.23 3.71997C29.2366 4.41998 30.94 5.53998 32.34 7.07998C33.7866 8.61998 34.9766 10.65 35.91 13.17L32.62 12.4L33.88 3.29997H38.29V16.39H33.46C32.8533 14.4766 31.9666 12.8433 30.8 11.49C29.6333 10.1366 28.28 9.10998 26.74 8.40998C25.2 7.66331 23.52 7.28997 21.7 7.28997C20.0666 7.28997 18.69 7.54664 17.57 8.05998C16.45 8.52664 15.5866 9.20331 14.98 10.09C14.42 10.9766 14.14 12.05 14.14 13.31C14.14 14.57 14.4433 15.6433 15.05 16.53C15.7033 17.37 16.59 18.0933 17.71 18.7C18.83 19.26 20.1366 19.75 21.63 20.17C23.1233 20.59 24.7333 21.0333 26.46 21.5C28.4666 22.06 30.4033 22.7366 32.27 23.53C34.1366 24.2766 35.7933 25.2333 37.24 26.4C38.7333 27.5666 39.9 29.0366 40.74 30.81C41.58 32.5366 42 34.6833 42 37.25C42 40.5633 41.2533 43.4566 39.76 45.93C38.2666 48.4033 36.1433 50.3166 33.39 51.67C30.6833 53.0233 27.44 53.7 23.66 53.7C20.9066 53.7 18.3166 53.3033 15.89 52.51C13.4633 51.67 11.3166 50.34 9.44995 48.52C7.58328 46.7 6.11328 44.2966 5.03995 41.31L8.32995 42.64L7.06995 53H2.44995V37.6H7.69995C8.58662 40.0266 9.75329 42.1033 11.2 43.83C12.6933 45.51 14.42 46.7933 16.38 47.68C18.34 48.52 20.4166 48.94 22.61 48.94Z" fill="white"/>
<path d="M60.0277 46.7V7.84997H57.0877C55.501 7.84997 54.1944 7.94331 53.1677 8.12998C52.141 8.26998 51.371 8.57331 50.8577 9.03998C50.3444 9.50664 50.041 10.16 49.9477 11L48.9677 18.91H44.1377V3.29997H89.4277V18.91H84.5977L83.6877 11C83.5944 10.16 83.291 9.50664 82.7777 9.03998C82.2644 8.57331 81.4944 8.26998 80.4677 8.12998C79.441 7.94331 78.111 7.84997 76.4777 7.84997H73.5377V46.7C73.5377 47.68 73.9344 48.3333 74.7277 48.66C75.521 48.94 76.501 49.08 77.6677 49.08H78.7177V53H54.9177V49.08H55.9677C57.1344 49.08 58.091 48.94 58.8377 48.66C59.631 48.3333 60.0277 47.68 60.0277 46.7Z" fill="white"/>
<path d="M116.385 30.39L129.125 28.85L137.945 47.12C138.225 47.68 138.528 48.1 138.855 48.38C139.228 48.66 139.625 48.8466 140.045 48.94C140.465 49.0333 140.955 49.08 141.515 49.08H141.935V53H126.115L116.385 30.39ZM111.835 48.38C111.835 48.52 111.951 48.6366 112.185 48.73C112.418 48.7766 112.721 48.8466 113.095 48.94C113.468 48.9866 113.865 49.0333 114.285 49.08C114.751 49.08 115.195 49.08 115.615 49.08H116.315V53H93.5648V49.08H94.1948C95.4081 49.08 96.3881 48.94 97.1348 48.66C97.9281 48.3333 98.3248 47.68 98.3248 46.7V9.59998C98.3248 8.61998 97.9281 7.98998 97.1348 7.70998C96.3881 7.38331 95.4081 7.21997 94.1948 7.21997H93.5648V3.29997H118.905C123.011 3.29997 126.488 3.88331 129.335 5.04997C132.181 6.21664 134.351 7.84998 135.845 9.94998C137.385 12.05 138.155 14.5 138.155 17.3C138.155 20.1 137.455 22.5733 136.055 24.72C134.655 26.82 132.601 28.4766 129.895 29.69C127.188 30.9033 123.898 31.6033 120.025 31.79C119.791 31.8366 119.511 31.8833 119.185 31.93C118.905 31.93 118.601 31.9533 118.275 32C117.995 32 117.691 32 117.365 32H110.085V27.59H116.245C118.111 27.59 119.628 27.2166 120.795 26.47C121.961 25.6766 122.825 24.51 123.385 22.97C123.945 21.43 124.225 19.54 124.225 17.3C124.225 15.2466 123.945 13.52 123.385 12.12C122.825 10.6733 121.961 9.59998 120.795 8.89997C119.675 8.15331 118.275 7.77998 116.595 7.77998H111.835V48.38Z" fill="white"/>
<path d="M185.563 37.53V53H145.313V49.08H145.943C147.156 49.08 148.136 48.9166 148.883 48.59C149.676 48.2633 150.073 47.5866 150.073 46.56V9.73998C150.073 8.71331 149.676 8.03664 148.883 7.70998C148.136 7.38331 147.156 7.21997 145.943 7.21997H145.313V3.29997H183.743V17.02H179.053L178.213 11C178.12 10.16 177.77 9.50664 177.163 9.03998C176.603 8.57331 175.81 8.26998 174.783 8.12998C173.756 7.94331 172.496 7.84997 171.003 7.84997H163.583V48.45H171.493C172.893 48.45 174.083 48.4033 175.063 48.31C176.09 48.2166 176.906 48.0533 177.513 47.82C178.166 47.5866 178.656 47.26 178.983 46.84C179.31 46.42 179.52 45.8833 179.613 45.23L180.663 37.53H185.563ZM161.833 25.56C163.886 25.4666 165.823 25.3733 167.643 25.28C169.463 25.14 171.213 25 172.893 24.86C174.573 24.6733 176.253 24.4866 177.933 24.3V30.88C176.253 30.6466 174.55 30.46 172.823 30.32C171.143 30.1333 169.393 29.97 167.573 29.83C165.8 29.69 163.886 29.5966 161.833 29.55V25.56Z" fill="white"/>
<path d="M190.225 53V49.08H190.925C191.718 49.08 192.418 48.9866 193.025 48.8C193.632 48.6133 194.098 48.2866 194.425 47.82C194.798 47.3533 194.985 46.77 194.985 46.07V9.59998C194.985 8.94664 194.798 8.45664 194.425 8.12998C194.098 7.75664 193.632 7.52331 193.025 7.42998C192.418 7.28998 191.718 7.21997 190.925 7.21997H190.225V3.29997H211.435L230.825 40.96L229.215 41.94V8.40998C229.215 8.12998 228.982 7.91998 228.515 7.77998C228.095 7.59331 227.535 7.45331 226.835 7.35998C226.182 7.26664 225.458 7.21997 224.665 7.21997H223.685V3.29997H239.015V7.21997H238.315C237.522 7.21997 236.822 7.31331 236.215 7.49998C235.608 7.63998 235.118 7.91998 234.745 8.33998C234.372 8.71331 234.185 9.27331 234.185 10.02V53H222.635L198.205 5.81998L200.025 6.09998V47.89C200.025 48.1233 200.235 48.3333 200.655 48.52C201.122 48.7066 201.682 48.8466 202.335 48.94C203.035 49.0333 203.782 49.08 204.575 49.08H205.555V53H190.225Z" fill="white"/>
<path d="M289.415 34.24V45.65C288.715 46.5366 287.688 47.47 286.335 48.45C285.028 49.3833 283.465 50.2466 281.645 51.04C279.825 51.8333 277.842 52.4866 275.695 53C273.548 53.4666 271.262 53.7 268.835 53.7C265.008 53.7 261.508 53.0933 258.335 51.88C255.162 50.6666 252.432 48.94 250.145 46.7C247.858 44.46 246.108 41.7766 244.895 38.65C243.682 35.5233 243.075 32.0233 243.075 28.15C243.075 24.4166 243.705 20.9866 244.965 17.86C246.225 14.7333 247.998 12.0266 250.285 9.73998C252.618 7.45331 255.302 5.70331 258.335 4.48998C261.415 3.22998 264.728 2.59998 268.275 2.59998C271.682 2.59998 274.528 3.13664 276.815 4.20998C279.102 5.28331 280.945 6.75331 282.345 8.61998C283.745 10.4866 284.818 12.6333 285.565 15.06L282.135 14.01L283.465 3.29997H288.155V18.56H282.905C282.298 16.3666 281.412 14.4533 280.245 12.82C279.125 11.1866 277.725 9.90331 276.045 8.96998C274.365 7.98998 272.382 7.49998 270.095 7.49998C268.088 7.49998 266.292 7.96664 264.705 8.89997C263.118 9.83331 261.765 11.1866 260.645 12.96C259.525 14.6866 258.662 16.8333 258.055 19.4C257.448 21.9666 257.145 24.8833 257.145 28.15C257.145 31.6033 257.425 34.6366 257.985 37.25C258.592 39.8633 259.432 42.0333 260.505 43.76C261.625 45.4866 262.955 46.77 264.495 47.61C266.035 48.45 267.762 48.87 269.675 48.87C271.028 48.87 272.172 48.73 273.105 48.45C274.085 48.1233 274.902 47.75 275.555 47.33C276.255 46.8633 276.768 46.4433 277.095 46.07V34.24C277.095 33.2133 276.698 32.56 275.905 32.28C275.158 31.9533 274.155 31.79 272.895 31.79H272.265V27.94H293.195V31.79H292.705C291.818 31.79 291.048 31.9533 290.395 32.28C289.742 32.56 289.415 33.2133 289.415 34.24Z" fill="white"/>
<path d="M311.112 46.7V7.84997H308.172C306.585 7.84997 305.278 7.94331 304.252 8.12998C303.225 8.26998 302.455 8.57331 301.942 9.03998C301.428 9.50664 301.125 10.16 301.032 11L300.052 18.91H295.222V3.29997H340.512V18.91H335.682L334.772 11C334.678 10.16 334.375 9.50664 333.862 9.03998C333.348 8.57331 332.578 8.26998 331.552 8.12998C330.525 7.94331 329.195 7.84997 327.562 7.84997H324.622V46.7C324.622 47.68 325.018 48.3333 325.812 48.66C326.605 48.94 327.585 49.08 328.752 49.08H329.802V53H306.002V49.08H307.052C308.218 49.08 309.175 48.94 309.922 48.66C310.715 48.3333 311.112 47.68 311.112 46.7Z" fill="white"/>
<path d="M355.989 25.07H385.179V29.69H355.989V25.07ZM344.649 53V49.08H345.279C346.492 49.08 347.472 48.94 348.219 48.66C349.012 48.3333 349.409 47.6566 349.409 46.63V9.66998C349.409 8.64331 349.012 7.98998 348.219 7.70998C347.472 7.38331 346.492 7.21997 345.279 7.21997H344.649V3.29997H367.749V7.21997H367.119C366.652 7.21997 366.162 7.24331 365.649 7.28997C365.182 7.28997 364.739 7.31331 364.319 7.35998C363.899 7.40664 363.572 7.47664 363.339 7.56997C363.105 7.61664 362.989 7.70998 362.989 7.84997V48.45C362.989 48.59 363.105 48.7066 363.339 48.8C363.572 48.8466 363.899 48.8933 364.319 48.94C364.739 48.9866 365.182 49.0333 365.649 49.08C366.162 49.08 366.652 49.08 367.119 49.08H367.749V53H344.649ZM374.749 53V49.08H375.379C375.845 49.08 376.312 49.08 376.779 49.08C377.292 49.0333 377.735 48.9866 378.109 48.94C378.529 48.8933 378.855 48.8466 379.089 48.8C379.369 48.7066 379.509 48.59 379.509 48.45V7.84997C379.509 7.70998 379.369 7.61664 379.089 7.56997C378.855 7.47664 378.529 7.40664 378.109 7.35998C377.735 7.31331 377.292 7.28997 376.779 7.28997C376.312 7.24331 375.822 7.21997 375.309 7.21997H374.749V3.29997H397.849V7.21997H397.149C395.982 7.21997 395.002 7.38331 394.209 7.70998C393.415 7.98998 393.019 8.64331 393.019 9.66998V46.63C393.019 47.6566 393.415 48.3333 394.209 48.66C395.002 48.94 395.982 49.08 397.149 49.08H397.849V53H374.749Z" fill="white"/>
<path d="M157.64 92C157.64 91.52 157.507 91.12 157.24 90.8C156.973 90.4533 156.6 90.1733 156.12 89.96C155.667 89.7466 155.147 89.56 154.56 89.4C153.973 89.2133 153.347 89.04 152.68 88.88C151.853 88.64 151.027 88.3866 150.2 88.12C149.4 87.8266 148.653 87.4533 147.96 87C147.293 86.52 146.747 85.92 146.32 85.2C145.92 84.4533 145.72 83.52 145.72 82.4C145.72 81.0666 146.067 79.9333 146.76 79C147.48 78.04 148.467 77.32 149.72 76.84C151 76.3333 152.493 76.08 154.2 76.08C155.587 76.08 156.787 76.1866 157.8 76.4C158.813 76.6133 159.64 76.8666 160.28 77.16C160.947 77.4533 161.413 77.7066 161.68 77.92V82.08H157.24V78.4C157.587 78.4 157.853 78.4533 158.04 78.56C158.253 78.6666 158.4 78.8266 158.48 79.04C158.56 79.2266 158.587 79.4266 158.56 79.64C158.533 79.8533 158.48 80.0666 158.4 80.28C158.107 79.9333 157.747 79.64 157.32 79.4C156.92 79.1333 156.467 78.9466 155.96 78.84C155.453 78.7066 154.88 78.64 154.24 78.64C153.093 78.64 152.227 78.88 151.64 79.36C151.08 79.8133 150.8 80.4133 150.8 81.16C150.8 81.6933 150.933 82.1333 151.2 82.48C151.493 82.8 151.88 83.08 152.36 83.32C152.84 83.5333 153.387 83.7333 154 83.92C154.64 84.1066 155.307 84.28 156 84.44C156.827 84.6533 157.653 84.9066 158.48 85.2C159.307 85.4933 160.067 85.8666 160.76 86.32C161.453 86.7733 162 87.36 162.4 88.08C162.827 88.7733 163.04 89.6533 163.04 90.72C163.04 92.08 162.68 93.2666 161.96 94.28C161.24 95.2666 160.187 96.04 158.8 96.6C157.413 97.1333 155.72 97.4 153.72 97.4C152.333 97.4 151.08 97.28 149.96 97.04C148.84 96.8266 147.867 96.56 147.04 96.24C146.24 95.8933 145.573 95.56 145.04 95.24V90.72H149.6V95.52C149.173 95.3066 148.84 95.08 148.6 94.84C148.387 94.5733 148.24 94.32 148.16 94.08C148.08 93.8133 148.067 93.5866 148.12 93.4C148.2 93.1866 148.32 93.0133 148.48 92.88C148.88 93.3333 149.333 93.7066 149.84 94C150.373 94.2666 150.96 94.48 151.6 94.64C152.267 94.7733 152.973 94.84 153.72 94.84C154.547 94.84 155.24 94.7333 155.8 94.52C156.387 94.3066 156.84 93.9866 157.16 93.56C157.48 93.1333 157.64 92.6133 157.64 92Z" fill="white"/>
<path d="M164.24 79.04V76.72H164.36C165.027 76.72 165.6 76.6666 166.08 76.56C166.56 76.4533 166.933 76.2666 167.2 76C167.467 75.7066 167.6 75.3066 167.6 74.8L170.96 76.52H178.68V79.04H164.24ZM173.28 90.16C173.28 91.2533 173.4 92.12 173.64 92.76C173.907 93.3733 174.267 93.8266 174.72 94.12C175.2 94.3866 175.773 94.52 176.44 94.52C176.973 94.52 177.467 94.4666 177.92 94.36C178.373 94.2266 178.733 94.12 179 94.04V96.72C178.787 96.8266 178.48 96.9333 178.08 97.04C177.68 97.1466 177.227 97.2266 176.72 97.28C176.213 97.36 175.653 97.4 175.04 97.4C173.6 97.4 172.28 97.1866 171.08 96.76C169.907 96.3066 168.973 95.5466 168.28 94.48C167.587 93.4133 167.24 91.9733 167.24 90.16V77.16L167.56 76.88L167.64 70.96H173.28V90.16Z" fill="white"/>
<path d="M194.545 84.68L194.505 86.84C193.465 86.9733 192.532 87.1466 191.705 87.36C190.878 87.5466 190.158 87.7866 189.545 88.08C188.932 88.3466 188.425 88.6666 188.025 89.04C187.652 89.3866 187.372 89.7866 187.185 90.24C186.998 90.6933 186.905 91.2 186.905 91.76C186.905 92.4 187.012 92.9466 187.225 93.4C187.465 93.8266 187.798 94.16 188.225 94.4C188.652 94.6133 189.145 94.72 189.705 94.72C190.452 94.72 191.105 94.5333 191.665 94.16C192.252 93.7866 192.772 93.2666 193.225 92.6C193.678 91.9066 194.078 91.1066 194.425 90.2L194.505 92.76C194.132 93.72 193.625 94.5466 192.985 95.24C192.345 95.9333 191.585 96.4666 190.705 96.84C189.825 97.2133 188.812 97.4 187.665 97.4C186.385 97.4 185.252 97.2 184.265 96.8C183.278 96.3733 182.505 95.76 181.945 94.96C181.412 94.1333 181.145 93.1466 181.145 92C181.145 90.88 181.425 89.92 181.985 89.12C182.545 88.32 183.385 87.64 184.505 87.08C185.652 86.4933 187.052 86.0133 188.705 85.64C190.385 85.24 192.332 84.92 194.545 84.68ZM193.985 97V92.96H193.545V82.36C193.545 81.48 193.425 80.7733 193.185 80.24C192.945 79.7066 192.572 79.3333 192.065 79.12C191.585 78.88 190.985 78.76 190.265 78.76C189.198 78.76 188.305 78.9866 187.585 79.44C186.892 79.8933 186.345 80.44 185.945 81.08C185.785 80.7866 185.705 80.52 185.705 80.28C185.732 80.0133 185.812 79.7733 185.945 79.56C186.078 79.3466 186.265 79.16 186.505 79C186.772 78.84 187.065 78.72 187.385 78.64V82.92H182.505V78.68C182.878 78.3866 183.438 78.04 184.185 77.64C184.958 77.24 185.905 76.8933 187.025 76.6C188.145 76.28 189.425 76.12 190.865 76.12C192.092 76.12 193.225 76.2533 194.265 76.52C195.305 76.76 196.212 77.16 196.985 77.72C197.785 78.2533 198.398 78.96 198.825 79.84C199.278 80.6933 199.505 81.7333 199.505 82.96V93.48C199.505 93.8 199.598 94.0533 199.785 94.24C199.972 94.4 200.238 94.52 200.585 94.6C200.958 94.68 201.385 94.7333 201.865 94.76L201.985 94.8V97H193.985Z" fill="white"/>
<path d="M219.157 76.36V81.68C218.943 81.6266 218.703 81.5733 218.437 81.52C218.197 81.4666 217.93 81.4266 217.637 81.4C217.37 81.3733 217.09 81.36 216.797 81.36C216.157 81.36 215.57 81.44 215.037 81.6C214.53 81.7333 214.063 81.9466 213.637 82.24C213.21 82.5333 212.823 82.92 212.477 83.4C212.13 83.88 211.783 84.4666 211.437 85.16V82.88C211.81 81.5733 212.263 80.4266 212.797 79.44C213.357 78.4266 214.023 77.64 214.797 77.08C215.597 76.4933 216.557 76.2 217.677 76.2C217.997 76.2 218.29 76.2133 218.557 76.24C218.823 76.2666 219.023 76.3066 219.157 76.36ZM203.637 97V94.84H203.677C204.397 94.84 204.983 94.76 205.437 94.6C205.917 94.44 206.157 94.1066 206.157 93.6V80.32C206.157 80 206.077 79.76 205.917 79.6C205.783 79.4133 205.557 79.2666 205.237 79.16C204.917 79.0266 204.503 78.9066 203.997 78.8L203.637 78.72V76.52H211.797V82.8L212.237 82.4V94C212.237 94.24 212.383 94.4266 212.677 94.56C212.997 94.6933 213.37 94.7733 213.797 94.8C214.25 94.8266 214.65 94.84 214.997 94.84H215.477V97H203.637Z" fill="white"/>
<path d="M220.842 79.04V76.72H220.962C221.628 76.72 222.202 76.6666 222.682 76.56C223.162 76.4533 223.535 76.2666 223.802 76C224.068 75.7066 224.202 75.3066 224.202 74.8L227.562 76.52H235.282V79.04H220.842ZM229.882 90.16C229.882 91.2533 230.002 92.12 230.242 92.76C230.508 93.3733 230.868 93.8266 231.322 94.12C231.802 94.3866 232.375 94.52 233.042 94.52C233.575 94.52 234.068 94.4666 234.522 94.36C234.975 94.2266 235.335 94.12 235.602 94.04V96.72C235.388 96.8266 235.082 96.9333 234.682 97.04C234.282 97.1466 233.828 97.2266 233.322 97.28C232.815 97.36 232.255 97.4 231.642 97.4C230.202 97.4 228.882 97.1866 227.682 96.76C226.508 96.3066 225.575 95.5466 224.882 94.48C224.188 93.4133 223.842 91.9733 223.842 90.16V77.16L224.162 76.88L224.242 70.96H229.882V90.16Z" fill="white"/>
<path d="M250.14 92C250.14 91.52 250.007 91.12 249.74 90.8C249.473 90.4533 249.1 90.1733 248.62 89.96C248.167 89.7466 247.647 89.56 247.06 89.4C246.473 89.2133 245.847 89.04 245.18 88.88C244.353 88.64 243.527 88.3866 242.7 88.12C241.9 87.8266 241.153 87.4533 240.46 87C239.793 86.52 239.247 85.92 238.82 85.2C238.42 84.4533 238.22 83.52 238.22 82.4C238.22 81.0666 238.567 79.9333 239.26 79C239.98 78.04 240.967 77.32 242.22 76.84C243.5 76.3333 244.993 76.08 246.7 76.08C248.087 76.08 249.287 76.1866 250.3 76.4C251.313 76.6133 252.14 76.8666 252.78 77.16C253.447 77.4533 253.913 77.7066 254.18 77.92V82.08H249.74V78.4C250.087 78.4 250.353 78.4533 250.54 78.56C250.753 78.6666 250.9 78.8266 250.98 79.04C251.06 79.2266 251.087 79.4266 251.06 79.64C251.033 79.8533 250.98 80.0666 250.9 80.28C250.607 79.9333 250.247 79.64 249.82 79.4C249.42 79.1333 248.967 78.9466 248.46 78.84C247.953 78.7066 247.38 78.64 246.74 78.64C245.593 78.64 244.727 78.88 244.14 79.36C243.58 79.8133 243.3 80.4133 243.3 81.16C243.3 81.6933 243.433 82.1333 243.7 82.48C243.993 82.8 244.38 83.08 244.86 83.32C245.34 83.5333 245.887 83.7333 246.5 83.92C247.14 84.1066 247.807 84.28 248.5 84.44C249.327 84.6533 250.153 84.9066 250.98 85.2C251.807 85.4933 252.567 85.8666 253.26 86.32C253.953 86.7733 254.5 87.36 254.9 88.08C255.327 88.7733 255.54 89.6533 255.54 90.72C255.54 92.08 255.18 93.2666 254.46 94.28C253.74 95.2666 252.687 96.04 251.3 96.6C249.913 97.1333 248.22 97.4 246.22 97.4C244.833 97.4 243.58 97.28 242.46 97.04C241.34 96.8266 240.367 96.56 239.54 96.24C238.74 95.8933 238.073 95.56 237.54 95.24V90.72H242.1V95.52C241.673 95.3066 241.34 95.08 241.1 94.84C240.887 94.5733 240.74 94.32 240.66 94.08C240.58 93.8133 240.567 93.5866 240.62 93.4C240.7 93.1866 240.82 93.0133 240.98 92.88C241.38 93.3333 241.833 93.7066 242.34 94C242.873 94.2666 243.46 94.48 244.1 94.64C244.767 94.7733 245.473 94.84 246.22 94.84C247.047 94.84 247.74 94.7333 248.3 94.52C248.887 94.3066 249.34 93.9866 249.66 93.56C249.98 93.1333 250.14 92.6133 250.14 92Z" fill="white"/>
<path d="M126.55 134.1H147.8V137.35H126.55V134.1ZM118.7 154V151.25H119.2C120.167 151.25 120.967 151.133 121.6 150.9C122.267 150.667 122.6 150.2 122.6 149.5V123C122.6 122.3 122.267 121.833 121.6 121.6C120.967 121.367 120.167 121.25 119.2 121.25H118.7V118.5H134.45V121.25H134C133.633 121.25 133.25 121.267 132.85 121.3C132.45 121.3 132.067 121.333 131.7 121.4C131.367 121.433 131.1 121.483 130.9 121.55C130.7 121.583 130.6 121.633 130.6 121.7V150.8C130.6 150.867 130.7 150.933 130.9 151C131.1 151.033 131.367 151.083 131.7 151.15C132.067 151.183 132.45 151.217 132.85 151.25C133.25 151.25 133.633 151.25 134 151.25H134.45V154H118.7ZM140.7 154V151.25H141.15C141.517 151.25 141.9 151.25 142.3 151.25C142.7 151.217 143.067 151.183 143.4 151.15C143.733 151.083 144 151.033 144.2 151C144.433 150.933 144.55 150.867 144.55 150.8V121.7C144.55 121.633 144.433 121.583 144.2 121.55C144 121.483 143.733 121.433 143.4 121.4C143.067 121.333 142.7 121.3 142.3 121.3C141.9 121.267 141.5 121.25 141.1 121.25H140.7V118.5H156.4V121.25H155.9C154.933 121.25 154.133 121.367 153.5 121.6C152.867 121.833 152.55 122.3 152.55 123V149.5C152.55 150.2 152.867 150.667 153.5 150.9C154.133 151.133 154.933 151.25 155.9 151.25H156.4V154H140.7Z" fill="white"/>
<path d="M187.962 142.95V154H159.862V151.25H160.362C161.329 151.25 162.129 151.133 162.762 150.9C163.429 150.667 163.762 150.183 163.762 149.45V123.05C163.762 122.317 163.429 121.833 162.762 121.6C162.129 121.367 161.329 121.25 160.362 121.25H159.862V118.5H186.662V128.3H183.312L182.812 124C182.712 123.367 182.462 122.9 182.062 122.6C181.662 122.267 181.062 122.05 180.262 121.95C179.462 121.817 178.462 121.75 177.262 121.75H171.712V150.75H178.012C179.012 150.75 179.879 150.733 180.612 150.7C181.345 150.633 181.945 150.517 182.412 150.35C182.879 150.15 183.229 149.9 183.462 149.6C183.729 149.3 183.895 148.933 183.962 148.5L184.562 142.95H187.962ZM170.412 134.4C171.845 134.333 173.212 134.283 174.512 134.25C175.845 134.183 177.145 134.1 178.412 134C179.679 133.9 180.929 133.8 182.162 133.7V138C180.929 137.867 179.679 137.767 178.412 137.7C177.145 137.6 175.845 137.517 174.512 137.45C173.212 137.35 171.845 137.283 170.412 137.25V134.4Z" fill="white"/>
<path d="M207.944 137.9L215.494 137L222.144 149.85C222.344 150.25 222.578 150.55 222.844 150.75C223.111 150.95 223.411 151.083 223.744 151.15C224.111 151.217 224.528 151.25 224.994 151.25H225.344V154H215.394L207.944 137.9ZM203.694 150.75C203.694 150.85 203.778 150.933 203.944 151C204.144 151.033 204.394 151.083 204.694 151.15C204.994 151.183 205.328 151.217 205.694 151.25C206.061 151.25 206.428 151.25 206.794 151.25H207.344V154H191.844V151.25H192.344C193.311 151.25 194.111 151.15 194.744 150.95C195.411 150.717 195.744 150.233 195.744 149.5V123C195.744 122.267 195.411 121.8 194.744 121.6C194.111 121.367 193.311 121.25 192.344 121.25H191.844V118.5H208.744C211.611 118.5 214.028 118.917 215.994 119.75C217.994 120.583 219.528 121.767 220.594 123.3C221.661 124.8 222.194 126.567 222.194 128.6C222.194 130.5 221.744 132.183 220.844 133.65C219.944 135.083 218.644 136.25 216.944 137.15C215.244 138.017 213.161 138.567 210.694 138.8C210.428 138.833 210.144 138.867 209.844 138.9C209.544 138.933 209.228 138.967 208.894 139C208.594 139.033 208.278 139.05 207.944 139.05H202.594V135.95H207.394C208.894 135.95 210.128 135.667 211.094 135.1C212.061 134.5 212.761 133.65 213.194 132.55C213.661 131.45 213.894 130.133 213.894 128.6C213.894 127.133 213.661 125.9 213.194 124.9C212.728 123.867 212.028 123.083 211.094 122.55C210.161 121.983 208.994 121.7 207.594 121.7H203.694V150.75Z" fill="white"/>
<path d="M256.077 142.95V154H227.977V151.25H228.477C229.444 151.25 230.244 151.133 230.877 150.9C231.544 150.667 231.877 150.183 231.877 149.45V123.05C231.877 122.317 231.544 121.833 230.877 121.6C230.244 121.367 229.444 121.25 228.477 121.25H227.977V118.5H254.777V128.3H251.427L250.927 124C250.827 123.367 250.577 122.9 250.177 122.6C249.777 122.267 249.177 122.05 248.377 121.95C247.577 121.817 246.577 121.75 245.377 121.75H239.827V150.75H246.127C247.127 150.75 247.994 150.733 248.727 150.7C249.461 150.633 250.061 150.517 250.527 150.35C250.994 150.15 251.344 149.9 251.577 149.6C251.844 149.3 252.011 148.933 252.077 148.5L252.677 142.95H256.077ZM238.527 134.4C239.961 134.333 241.327 134.283 242.627 134.25C243.961 134.183 245.261 134.1 246.527 134C247.794 133.9 249.044 133.8 250.277 133.7V138C249.044 137.867 247.794 137.767 246.527 137.7C245.261 137.6 243.961 137.517 242.627 137.45C241.327 137.35 239.961 137.283 238.527 137.25V134.4Z" fill="white"/>
<path d="M265.506 154.45C264.173 154.45 263.106 154.083 262.306 153.35C261.506 152.583 261.106 151.6 261.106 150.4C261.106 149.2 261.506 148.233 262.306 147.5C263.106 146.733 264.173 146.35 265.506 146.35C266.873 146.35 267.956 146.733 268.756 147.5C269.556 148.233 269.956 149.2 269.956 150.4C269.956 151.6 269.556 152.583 268.756 153.35C267.956 154.083 266.873 154.45 265.506 154.45Z" fill="white"/>
<path d="M284.164 117.65C284.164 119.383 284.097 121.017 283.964 122.55C283.831 124.083 283.664 125.567 283.464 127C283.264 128.433 283.064 129.933 282.864 131.5C282.664 133.033 282.497 134.683 282.364 136.45C282.231 138.217 282.164 140.2 282.164 142.4H278.064C278.064 140.2 277.997 138.217 277.864 136.45C277.731 134.683 277.564 133.033 277.364 131.5C277.164 129.967 276.964 128.483 276.764 127.05C276.564 125.583 276.397 124.1 276.264 122.6C276.131 121.067 276.064 119.417 276.064 117.65H284.164ZM280.064 154.45C281.464 154.45 282.547 154.083 283.314 153.35C284.114 152.583 284.514 151.6 284.514 150.4C284.514 149.2 284.114 148.233 283.314 147.5C282.547 146.733 281.464 146.35 280.064 146.35C278.731 146.35 277.664 146.733 276.864 147.5C276.064 148.233 275.664 149.2 275.664 150.4C275.664 151.6 276.064 152.583 276.864 153.35C277.664 154.083 278.731 154.45 280.064 154.45Z" fill="white"/>
<path d="M299.008 117.65C299.008 119.383 298.941 121.017 298.808 122.55C298.674 124.083 298.508 125.567 298.308 127C298.108 128.433 297.908 129.933 297.708 131.5C297.508 133.033 297.341 134.683 297.208 136.45C297.074 138.217 297.008 140.2 297.008 142.4H292.908C292.908 140.2 292.841 138.217 292.708 136.45C292.574 134.683 292.408 133.033 292.208 131.5C292.008 129.967 291.808 128.483 291.608 127.05C291.408 125.583 291.241 124.1 291.108 122.6C290.974 121.067 290.908 119.417 290.908 117.65H299.008ZM294.908 154.45C296.308 154.45 297.391 154.083 298.158 153.35C298.958 152.583 299.358 151.6 299.358 150.4C299.358 149.2 298.958 148.233 298.158 147.5C297.391 146.733 296.308 146.35 294.908 146.35C293.574 146.35 292.508 146.733 291.708 147.5C290.908 148.233 290.508 149.2 290.508 150.4C290.508 151.6 290.908 152.583 291.708 153.35C292.508 154.083 293.574 154.45 294.908 154.45Z" fill="white"/>
<path d="M22.61 48.94C24.3833 48.94 25.9 48.7066 27.16 48.24C28.42 47.7266 29.3766 46.98 30.03 46C30.73 44.9733 31.08 43.6666 31.08 42.08C31.08 40.7733 30.7533 39.7 30.1 38.86C29.4933 37.9733 28.6066 37.2033 27.44 36.55C26.2733 35.8966 24.8733 35.3133 23.24 34.8C21.6066 34.24 19.81 33.68 17.85 33.12C16.03 32.56 14.2566 31.9066 12.53 31.16C10.85 30.3666 9.30995 29.3633 7.90995 28.15C6.55662 26.9366 5.45995 25.4433 4.61995 23.67C3.82662 21.8966 3.42995 19.75 3.42995 17.23C3.42995 14.1033 4.19995 11.4666 5.73995 9.31998C7.27995 7.12664 9.30995 5.46998 11.83 4.34997C14.3966 3.18331 17.1966 2.59998 20.23 2.59998C22.89 2.59998 25.2233 2.97331 27.23 3.71997C29.2366 4.41998 30.94 5.53998 32.34 7.07998C33.7866 8.61998 34.9766 10.65 35.91 13.17L32.62 12.4L33.88 3.29997H38.29V16.39H33.46C32.8533 14.4766 31.9666 12.8433 30.8 11.49C29.6333 10.1366 28.28 9.10998 26.74 8.40998C25.2 7.66331 23.52 7.28997 21.7 7.28997C20.0666 7.28997 18.69 7.54664 17.57 8.05998C16.45 8.52664 15.5866 9.20331 14.98 10.09C14.42 10.9766 14.14 12.05 14.14 13.31C14.14 14.57 14.4433 15.6433 15.05 16.53C15.7033 17.37 16.59 18.0933 17.71 18.7C18.83 19.26 20.1366 19.75 21.63 20.17C23.1233 20.59 24.7333 21.0333 26.46 21.5C28.4666 22.06 30.4033 22.7366 32.27 23.53C34.1366 24.2766 35.7933 25.2333 37.24 26.4C38.7333 27.5666 39.9 29.0366 40.74 30.81C41.58 32.5366 42 34.6833 42 37.25C42 40.5633 41.2533 43.4566 39.76 45.93C38.2666 48.4033 36.1433 50.3166 33.39 51.67C30.6833 53.0233 27.44 53.7 23.66 53.7C20.9066 53.7 18.3166 53.3033 15.89 52.51C13.4633 51.67 11.3166 50.34 9.44995 48.52C7.58328 46.7 6.11328 44.2966 5.03995 41.31L8.32995 42.64L7.06995 53H2.44995V37.6H7.69995C8.58662 40.0266 9.75329 42.1033 11.2 43.83C12.6933 45.51 14.42 46.7933 16.38 47.68C18.34 48.52 20.4166 48.94 22.61 48.94Z" stroke="black" stroke-width="4" mask="url(#path-1-outside-1_2038_7)"/>
<path d="M60.0277 46.7V7.84997H57.0877C55.501 7.84997 54.1944 7.94331 53.1677 8.12998C52.141 8.26998 51.371 8.57331 50.8577 9.03998C50.3444 9.50664 50.041 10.16 49.9477 11L48.9677 18.91H44.1377V3.29997H89.4277V18.91H84.5977L83.6877 11C83.5944 10.16 83.291 9.50664 82.7777 9.03998C82.2644 8.57331 81.4944 8.26998 80.4677 8.12998C79.441 7.94331 78.111 7.84997 76.4777 7.84997H73.5377V46.7C73.5377 47.68 73.9344 48.3333 74.7277 48.66C75.521 48.94 76.501 49.08 77.6677 49.08H78.7177V53H54.9177V49.08H55.9677C57.1344 49.08 58.091 48.94 58.8377 48.66C59.631 48.3333 60.0277 47.68 60.0277 46.7Z" stroke="black" stroke-width="4" mask="url(#path-1-outside-1_2038_7)"/>
<path d="M116.385 30.39L129.125 28.85L137.945 47.12C138.225 47.68 138.528 48.1 138.855 48.38C139.228 48.66 139.625 48.8466 140.045 48.94C140.465 49.0333 140.955 49.08 141.515 49.08H141.935V53H126.115L116.385 30.39ZM111.835 48.38C111.835 48.52 111.951 48.6366 112.185 48.73C112.418 48.7766 112.721 48.8466 113.095 48.94C113.468 48.9866 113.865 49.0333 114.285 49.08C114.751 49.08 115.195 49.08 115.615 49.08H116.315V53H93.5648V49.08H94.1948C95.4081 49.08 96.3881 48.94 97.1348 48.66C97.9281 48.3333 98.3248 47.68 98.3248 46.7V9.59998C98.3248 8.61998 97.9281 7.98998 97.1348 7.70998C96.3881 7.38331 95.4081 7.21997 94.1948 7.21997H93.5648V3.29997H118.905C123.011 3.29997 126.488 3.88331 129.335 5.04997C132.181 6.21664 134.351 7.84998 135.845 9.94998C137.385 12.05 138.155 14.5 138.155 17.3C138.155 20.1 137.455 22.5733 136.055 24.72C134.655 26.82 132.601 28.4766 129.895 29.69C127.188 30.9033 123.898 31.6033 120.025 31.79C119.791 31.8366 119.511 31.8833 119.185 31.93C118.905 31.93 118.601 31.9533 118.275 32C117.995 32 117.691 32 117.365 32H110.085V27.59H116.245C118.111 27.59 119.628 27.2166 120.795 26.47C121.961 25.6766 122.825 24.51 123.385 22.97C123.945 21.43 124.225 19.54 124.225 17.3C124.225 15.2466 123.945 13.52 123.385 12.12C122.825 10.6733 121.961 9.59998 120.795 8.89997C119.675 8.15331 118.275 7.77998 116.595 7.77998H111.835V48.38Z" stroke="black" stroke-width="4" mask="url(#path-1-outside-1_2038_7)"/>
<path d="M185.563 37.53V53H145.313V49.08H145.943C147.156 49.08 148.136 48.9166 148.883 48.59C149.676 48.2633 150.073 47.5866 150.073 46.56V9.73998C150.073 8.71331 149.676 8.03664 148.883 7.70998C148.136 7.38331 147.156 7.21997 145.943 7.21997H145.313V3.29997H183.743V17.02H179.053L178.213 11C178.12 10.16 177.77 9.50664 177.163 9.03998C176.603 8.57331 175.81 8.26998 174.783 8.12998C173.756 7.94331 172.496 7.84997 171.003 7.84997H163.583V48.45H171.493C172.893 48.45 174.083 48.4033 175.063 48.31C176.09 48.2166 176.906 48.0533 177.513 47.82C178.166 47.5866 178.656 47.26 178.983 46.84C179.31 46.42 179.52 45.8833 179.613 45.23L180.663 37.53H185.563ZM161.833 25.56C163.886 25.4666 165.823 25.3733 167.643 25.28C169.463 25.14 171.213 25 172.893 24.86C174.573 24.6733 176.253 24.4866 177.933 24.3V30.88C176.253 30.6466 174.55 30.46 172.823 30.32C171.143 30.1333 169.393 29.97 167.573 29.83C165.8 29.69 163.886 29.5966 161.833 29.55V25.56Z" stroke="black" stroke-width="4" mask="url(#path-1-outside-1_2038_7)"/>
<path d="M190.225 53V49.08H190.925C191.718 49.08 192.418 48.9866 193.025 48.8C193.632 48.6133 194.098 48.2866 194.425 47.82C194.798 47.3533 194.985 46.77 194.985 46.07V9.59998C194.985 8.94664 194.798 8.45664 194.425 8.12998C194.098 7.75664 193.632 7.52331 193.025 7.42998C192.418 7.28998 191.718 7.21997 190.925 7.21997H190.225V3.29997H211.435L230.825 40.96L229.215 41.94V8.40998C229.215 8.12998 228.982 7.91998 228.515 7.77998C228.095 7.59331 227.535 7.45331 226.835 7.35998C226.182 7.26664 225.458 7.21997 224.665 7.21997H223.685V3.29997H239.015V7.21997H238.315C237.522 7.21997 236.822 7.31331 236.215 7.49998C235.608 7.63998 235.118 7.91998 234.745 8.33998C234.372 8.71331 234.185 9.27331 234.185 10.02V53H222.635L198.205 5.81998L200.025 6.09998V47.89C200.025 48.1233 200.235 48.3333 200.655 48.52C201.122 48.7066 201.682 48.8466 202.335 48.94C203.035 49.0333 203.782 49.08 204.575 49.08H205.555V53H190.225Z" stroke="black" stroke-width="4" mask="url(#path-1-outside-1_2038_7)"/>
<path d="M289.415 34.24V45.65C288.715 46.5366 287.688 47.47 286.335 48.45C285.028 49.3833 283.465 50.2466 281.645 51.04C279.825 51.8333 277.842 52.4866 275.695 53C273.548 53.4666 271.262 53.7 268.835 53.7C265.008 53.7 261.508 53.0933 258.335 51.88C255.162 50.6666 252.432 48.94 250.145 46.7C247.858 44.46 246.108 41.7766 244.895 38.65C243.682 35.5233 243.075 32.0233 243.075 28.15C243.075 24.4166 243.705 20.9866 244.965 17.86C246.225 14.7333 247.998 12.0266 250.285 9.73998C252.618 7.45331 255.302 5.70331 258.335 4.48998C261.415 3.22998 264.728 2.59998 268.275 2.59998C271.682 2.59998 274.528 3.13664 276.815 4.20998C279.102 5.28331 280.945 6.75331 282.345 8.61998C283.745 10.4866 284.818 12.6333 285.565 15.06L282.135 14.01L283.465 3.29997H288.155V18.56H282.905C282.298 16.3666 281.412 14.4533 280.245 12.82C279.125 11.1866 277.725 9.90331 276.045 8.96998C274.365 7.98998 272.382 7.49998 270.095 7.49998C268.088 7.49998 266.292 7.96664 264.705 8.89997C263.118 9.83331 261.765 11.1866 260.645 12.96C259.525 14.6866 258.662 16.8333 258.055 19.4C257.448 21.9666 257.145 24.8833 257.145 28.15C257.145 31.6033 257.425 34.6366 257.985 37.25C258.592 39.8633 259.432 42.0333 260.505 43.76C261.625 45.4866 262.955 46.77 264.495 47.61C266.035 48.45 267.762 48.87 269.675 48.87C271.028 48.87 272.172 48.73 273.105 48.45C274.085 48.1233 274.902 47.75 275.555 47.33C276.255 46.8633 276.768 46.4433 277.095 46.07V34.24C277.095 33.2133 276.698 32.56 275.905 32.28C275.158 31.9533 274.155 31.79 272.895 31.79H272.265V27.94H293.195V31.79H292.705C291.818 31.79 291.048 31.9533 290.395 32.28C289.742 32.56 289.415 33.2133 289.415 34.24Z" stroke="black" stroke-width="4" mask="url(#path-1-outside-1_2038_7)"/>
<path d="M311.112 46.7V7.84997H308.172C306.585 7.84997 305.278 7.94331 304.252 8.12998C303.225 8.26998 302.455 8.57331 301.942 9.03998C301.428 9.50664 301.125 10.16 301.032 11L300.052 18.91H295.222V3.29997H340.512V18.91H335.682L334.772 11C334.678 10.16 334.375 9.50664 333.862 9.03998C333.348 8.57331 332.578 8.26998 331.552 8.12998C330.525 7.94331 329.195 7.84997 327.562 7.84997H324.622V46.7C324.622 47.68 325.018 48.3333 325.812 48.66C326.605 48.94 327.585 49.08 328.752 49.08H329.802V53H306.002V49.08H307.052C308.218 49.08 309.175 48.94 309.922 48.66C310.715 48.3333 311.112 47.68 311.112 46.7Z" stroke="black" stroke-width="4" mask="url(#path-1-outside-1_2038_7)"/>
<path d="M355.989 25.07H385.179V29.69H355.989V25.07ZM344.649 53V49.08H345.279C346.492 49.08 347.472 48.94 348.219 48.66C349.012 48.3333 349.409 47.6566 349.409 46.63V9.66998C349.409 8.64331 349.012 7.98998 348.219 7.70998C347.472 7.38331 346.492 7.21997 345.279 7.21997H344.649V3.29997H367.749V7.21997H367.119C366.652 7.21997 366.162 7.24331 365.649 7.28997C365.182 7.28997 364.739 7.31331 364.319 7.35998C363.899 7.40664 363.572 7.47664 363.339 7.56997C363.105 7.61664 362.989 7.70998 362.989 7.84997V48.45C362.989 48.59 363.105 48.7066 363.339 48.8C363.572 48.8466 363.899 48.8933 364.319 48.94C364.739 48.9866 365.182 49.0333 365.649 49.08C366.162 49.08 366.652 49.08 367.119 49.08H367.749V53H344.649ZM374.749 53V49.08H375.379C375.845 49.08 376.312 49.08 376.779 49.08C377.292 49.0333 377.735 48.9866 378.109 48.94C378.529 48.8933 378.855 48.8466 379.089 48.8C379.369 48.7066 379.509 48.59 379.509 48.45V7.84997C379.509 7.70998 379.369 7.61664 379.089 7.56997C378.855 7.47664 378.529 7.40664 378.109 7.35998C377.735 7.31331 377.292 7.28997 376.779 7.28997C376.312 7.24331 375.822 7.21997 375.309 7.21997H374.749V3.29997H397.849V7.21997H397.149C395.982 7.21997 395.002 7.38331 394.209 7.70998C393.415 7.98998 393.019 8.64331 393.019 9.66998V46.63C393.019 47.6566 393.415 48.3333 394.209 48.66C395.002 48.94 395.982 49.08 397.149 49.08H397.849V53H374.749Z" stroke="black" stroke-width="4" mask="url(#path-1-outside-1_2038_7)"/>
<path d="M157.64 92C157.64 91.52 157.507 91.12 157.24 90.8C156.973 90.4533 156.6 90.1733 156.12 89.96C155.667 89.7466 155.147 89.56 154.56 89.4C153.973 89.2133 153.347 89.04 152.68 88.88C151.853 88.64 151.027 88.3866 150.2 88.12C149.4 87.8266 148.653 87.4533 147.96 87C147.293 86.52 146.747 85.92 146.32 85.2C145.92 84.4533 145.72 83.52 145.72 82.4C145.72 81.0666 146.067 79.9333 146.76 79C147.48 78.04 148.467 77.32 149.72 76.84C151 76.3333 152.493 76.08 154.2 76.08C155.587 76.08 156.787 76.1866 157.8 76.4C158.813 76.6133 159.64 76.8666 160.28 77.16C160.947 77.4533 161.413 77.7066 161.68 77.92V82.08H157.24V78.4C157.587 78.4 157.853 78.4533 158.04 78.56C158.253 78.6666 158.4 78.8266 158.48 79.04C158.56 79.2266 158.587 79.4266 158.56 79.64C158.533 79.8533 158.48 80.0666 158.4 80.28C158.107 79.9333 157.747 79.64 157.32 79.4C156.92 79.1333 156.467 78.9466 155.96 78.84C155.453 78.7066 154.88 78.64 154.24 78.64C153.093 78.64 152.227 78.88 151.64 79.36C151.08 79.8133 150.8 80.4133 150.8 81.16C150.8 81.6933 150.933 82.1333 151.2 82.48C151.493 82.8 151.88 83.08 152.36 83.32C152.84 83.5333 153.387 83.7333 154 83.92C154.64 84.1066 155.307 84.28 156 84.44C156.827 84.6533 157.653 84.9066 158.48 85.2C159.307 85.4933 160.067 85.8666 160.76 86.32C161.453 86.7733 162 87.36 162.4 88.08C162.827 88.7733 163.04 89.6533 163.04 90.72C163.04 92.08 162.68 93.2666 161.96 94.28C161.24 95.2666 160.187 96.04 158.8 96.6C157.413 97.1333 155.72 97.4 153.72 97.4C152.333 97.4 151.08 97.28 149.96 97.04C148.84 96.8266 147.867 96.56 147.04 96.24C146.24 95.8933 145.573 95.56 145.04 95.24V90.72H149.6V95.52C149.173 95.3066 148.84 95.08 148.6 94.84C148.387 94.5733 148.24 94.32 148.16 94.08C148.08 93.8133 148.067 93.5866 148.12 93.4C148.2 93.1866 148.32 93.0133 148.48 92.88C148.88 93.3333 149.333 93.7066 149.84 94C150.373 94.2666 150.96 94.48 151.6 94.64C152.267 94.7733 152.973 94.84 153.72 94.84C154.547 94.84 155.24 94.7333 155.8 94.52C156.387 94.3066 156.84 93.9866 157.16 93.56C157.48 93.1333 157.64 92.6133 157.64 92Z" stroke="black" stroke-width="4" mask="url(#path-1-outside-1_2038_7)"/>
<path d="M164.24 79.04V76.72H164.36C165.027 76.72 165.6 76.6666 166.08 76.56C166.56 76.4533 166.933 76.2666 167.2 76C167.467 75.7066 167.6 75.3066 167.6 74.8L170.96 76.52H178.68V79.04H164.24ZM173.28 90.16C173.28 91.2533 173.4 92.12 173.64 92.76C173.907 93.3733 174.267 93.8266 174.72 94.12C175.2 94.3866 175.773 94.52 176.44 94.52C176.973 94.52 177.467 94.4666 177.92 94.36C178.373 94.2266 178.733 94.12 179 94.04V96.72C178.787 96.8266 178.48 96.9333 178.08 97.04C177.68 97.1466 177.227 97.2266 176.72 97.28C176.213 97.36 175.653 97.4 175.04 97.4C173.6 97.4 172.28 97.1866 171.08 96.76C169.907 96.3066 168.973 95.5466 168.28 94.48C167.587 93.4133 167.24 91.9733 167.24 90.16V77.16L167.56 76.88L167.64 70.96H173.28V90.16Z" stroke="black" stroke-width="4" mask="url(#path-1-outside-1_2038_7)"/>
<path d="M194.545 84.68L194.505 86.84C193.465 86.9733 192.532 87.1466 191.705 87.36C190.878 87.5466 190.158 87.7866 189.545 88.08C188.932 88.3466 188.425 88.6666 188.025 89.04C187.652 89.3866 187.372 89.7866 187.185 90.24C186.998 90.6933 186.905 91.2 186.905 91.76C186.905 92.4 187.012 92.9466 187.225 93.4C187.465 93.8266 187.798 94.16 188.225 94.4C188.652 94.6133 189.145 94.72 189.705 94.72C190.452 94.72 191.105 94.5333 191.665 94.16C192.252 93.7866 192.772 93.2666 193.225 92.6C193.678 91.9066 194.078 91.1066 194.425 90.2L194.505 92.76C194.132 93.72 193.625 94.5466 192.985 95.24C192.345 95.9333 191.585 96.4666 190.705 96.84C189.825 97.2133 188.812 97.4 187.665 97.4C186.385 97.4 185.252 97.2 184.265 96.8C183.278 96.3733 182.505 95.76 181.945 94.96C181.412 94.1333 181.145 93.1466 181.145 92C181.145 90.88 181.425 89.92 181.985 89.12C182.545 88.32 183.385 87.64 184.505 87.08C185.652 86.4933 187.052 86.0133 188.705 85.64C190.385 85.24 192.332 84.92 194.545 84.68ZM193.985 97V92.96H193.545V82.36C193.545 81.48 193.425 80.7733 193.185 80.24C192.945 79.7066 192.572 79.3333 192.065 79.12C191.585 78.88 190.985 78.76 190.265 78.76C189.198 78.76 188.305 78.9866 187.585 79.44C186.892 79.8933 186.345 80.44 185.945 81.08C185.785 80.7866 185.705 80.52 185.705 80.28C185.732 80.0133 185.812 79.7733 185.945 79.56C186.078 79.3466 186.265 79.16 186.505 79C186.772 78.84 187.065 78.72 187.385 78.64V82.92H182.505V78.68C182.878 78.3866 183.438 78.04 184.185 77.64C184.958 77.24 185.905 76.8933 187.025 76.6C188.145 76.28 189.425 76.12 190.865 76.12C192.092 76.12 193.225 76.2533 194.265 76.52C195.305 76.76 196.212 77.16 196.985 77.72C197.785 78.2533 198.398 78.96 198.825 79.84C199.278 80.6933 199.505 81.7333 199.505 82.96V93.48C199.505 93.8 199.598 94.0533 199.785 94.24C199.972 94.4 200.238 94.52 200.585 94.6C200.958 94.68 201.385 94.7333 201.865 94.76L201.985 94.8V97H193.985Z" stroke="black" stroke-width="4" mask="url(#path-1-outside-1_2038_7)"/>
<path d="M219.157 76.36V81.68C218.943 81.6266 218.703 81.5733 218.437 81.52C218.197 81.4666 217.93 81.4266 217.637 81.4C217.37 81.3733 217.09 81.36 216.797 81.36C216.157 81.36 215.57 81.44 215.037 81.6C214.53 81.7333 214.063 81.9466 213.637 82.24C213.21 82.5333 212.823 82.92 212.477 83.4C212.13 83.88 211.783 84.4666 211.437 85.16V82.88C211.81 81.5733 212.263 80.4266 212.797 79.44C213.357 78.4266 214.023 77.64 214.797 77.08C215.597 76.4933 216.557 76.2 217.677 76.2C217.997 76.2 218.29 76.2133 218.557 76.24C218.823 76.2666 219.023 76.3066 219.157 76.36ZM203.637 97V94.84H203.677C204.397 94.84 204.983 94.76 205.437 94.6C205.917 94.44 206.157 94.1066 206.157 93.6V80.32C206.157 80 206.077 79.76 205.917 79.6C205.783 79.4133 205.557 79.2666 205.237 79.16C204.917 79.0266 204.503 78.9066 203.997 78.8L203.637 78.72V76.52H211.797V82.8L212.237 82.4V94C212.237 94.24 212.383 94.4266 212.677 94.56C212.997 94.6933 213.37 94.7733 213.797 94.8C214.25 94.8266 214.65 94.84 214.997 94.84H215.477V97H203.637Z" stroke="black" stroke-width="4" mask="url(#path-1-outside-1_2038_7)"/>
<path d="M220.842 79.04V76.72H220.962C221.628 76.72 222.202 76.6666 222.682 76.56C223.162 76.4533 223.535 76.2666 223.802 76C224.068 75.7066 224.202 75.3066 224.202 74.8L227.562 76.52H235.282V79.04H220.842ZM229.882 90.16C229.882 91.2533 230.002 92.12 230.242 92.76C230.508 93.3733 230.868 93.8266 231.322 94.12C231.802 94.3866 232.375 94.52 233.042 94.52C233.575 94.52 234.068 94.4666 234.522 94.36C234.975 94.2266 235.335 94.12 235.602 94.04V96.72C235.388 96.8266 235.082 96.9333 234.682 97.04C234.282 97.1466 233.828 97.2266 233.322 97.28C232.815 97.36 232.255 97.4 231.642 97.4C230.202 97.4 228.882 97.1866 227.682 96.76C226.508 96.3066 225.575 95.5466 224.882 94.48C224.188 93.4133 223.842 91.9733 223.842 90.16V77.16L224.162 76.88L224.242 70.96H229.882V90.16Z" stroke="black" stroke-width="4" mask="url(#path-1-outside-1_2038_7)"/>
<path d="M250.14 92C250.14 91.52 250.007 91.12 249.74 90.8C249.473 90.4533 249.1 90.1733 248.62 89.96C248.167 89.7466 247.647 89.56 247.06 89.4C246.473 89.2133 245.847 89.04 245.18 88.88C244.353 88.64 243.527 88.3866 242.7 88.12C241.9 87.8266 241.153 87.4533 240.46 87C239.793 86.52 239.247 85.92 238.82 85.2C238.42 84.4533 238.22 83.52 238.22 82.4C238.22 81.0666 238.567 79.9333 239.26 79C239.98 78.04 240.967 77.32 242.22 76.84C243.5 76.3333 244.993 76.08 246.7 76.08C248.087 76.08 249.287 76.1866 250.3 76.4C251.313 76.6133 252.14 76.8666 252.78 77.16C253.447 77.4533 253.913 77.7066 254.18 77.92V82.08H249.74V78.4C250.087 78.4 250.353 78.4533 250.54 78.56C250.753 78.6666 250.9 78.8266 250.98 79.04C251.06 79.2266 251.087 79.4266 251.06 79.64C251.033 79.8533 250.98 80.0666 250.9 80.28C250.607 79.9333 250.247 79.64 249.82 79.4C249.42 79.1333 248.967 78.9466 248.46 78.84C247.953 78.7066 247.38 78.64 246.74 78.64C245.593 78.64 244.727 78.88 244.14 79.36C243.58 79.8133 243.3 80.4133 243.3 81.16C243.3 81.6933 243.433 82.1333 243.7 82.48C243.993 82.8 244.38 83.08 244.86 83.32C245.34 83.5333 245.887 83.7333 246.5 83.92C247.14 84.1066 247.807 84.28 248.5 84.44C249.327 84.6533 250.153 84.9066 250.98 85.2C251.807 85.4933 252.567 85.8666 253.26 86.32C253.953 86.7733 254.5 87.36 254.9 88.08C255.327 88.7733 255.54 89.6533 255.54 90.72C255.54 92.08 255.18 93.2666 254.46 94.28C253.74 95.2666 252.687 96.04 251.3 96.6C249.913 97.1333 248.22 97.4 246.22 97.4C244.833 97.4 243.58 97.28 242.46 97.04C241.34 96.8266 240.367 96.56 239.54 96.24C238.74 95.8933 238.073 95.56 237.54 95.24V90.72H242.1V95.52C241.673 95.3066 241.34 95.08 241.1 94.84C240.887 94.5733 240.74 94.32 240.66 94.08C240.58 93.8133 240.567 93.5866 240.62 93.4C240.7 93.1866 240.82 93.0133 240.98 92.88C241.38 93.3333 241.833 93.7066 242.34 94C242.873 94.2666 243.46 94.48 244.1 94.64C244.767 94.7733 245.473 94.84 246.22 94.84C247.047 94.84 247.74 94.7333 248.3 94.52C248.887 94.3066 249.34 93.9866 249.66 93.56C249.98 93.1333 250.14 92.6133 250.14 92Z" stroke="black" stroke-width="4" mask="url(#path-1-outside-1_2038_7)"/>
<path d="M126.55 134.1H147.8V137.35H126.55V134.1ZM118.7 154V151.25H119.2C120.167 151.25 120.967 151.133 121.6 150.9C122.267 150.667 122.6 150.2 122.6 149.5V123C122.6 122.3 122.267 121.833 121.6 121.6C120.967 121.367 120.167 121.25 119.2 121.25H118.7V118.5H134.45V121.25H134C133.633 121.25 133.25 121.267 132.85 121.3C132.45 121.3 132.067 121.333 131.7 121.4C131.367 121.433 131.1 121.483 130.9 121.55C130.7 121.583 130.6 121.633 130.6 121.7V150.8C130.6 150.867 130.7 150.933 130.9 151C131.1 151.033 131.367 151.083 131.7 151.15C132.067 151.183 132.45 151.217 132.85 151.25C133.25 151.25 133.633 151.25 134 151.25H134.45V154H118.7ZM140.7 154V151.25H141.15C141.517 151.25 141.9 151.25 142.3 151.25C142.7 151.217 143.067 151.183 143.4 151.15C143.733 151.083 144 151.033 144.2 151C144.433 150.933 144.55 150.867 144.55 150.8V121.7C144.55 121.633 144.433 121.583 144.2 121.55C144 121.483 143.733 121.433 143.4 121.4C143.067 121.333 142.7 121.3 142.3 121.3C141.9 121.267 141.5 121.25 141.1 121.25H140.7V118.5H156.4V121.25H155.9C154.933 121.25 154.133 121.367 153.5 121.6C152.867 121.833 152.55 122.3 152.55 123V149.5C152.55 150.2 152.867 150.667 153.5 150.9C154.133 151.133 154.933 151.25 155.9 151.25H156.4V154H140.7Z" stroke="black" stroke-width="4" mask="url(#path-1-outside-1_2038_7)"/>
<path d="M187.962 142.95V154H159.862V151.25H160.362C161.329 151.25 162.129 151.133 162.762 150.9C163.429 150.667 163.762 150.183 163.762 149.45V123.05C163.762 122.317 163.429 121.833 162.762 121.6C162.129 121.367 161.329 121.25 160.362 121.25H159.862V118.5H186.662V128.3H183.312L182.812 124C182.712 123.367 182.462 122.9 182.062 122.6C181.662 122.267 181.062 122.05 180.262 121.95C179.462 121.817 178.462 121.75 177.262 121.75H171.712V150.75H178.012C179.012 150.75 179.879 150.733 180.612 150.7C181.345 150.633 181.945 150.517 182.412 150.35C182.879 150.15 183.229 149.9 183.462 149.6C183.729 149.3 183.895 148.933 183.962 148.5L184.562 142.95H187.962ZM170.412 134.4C171.845 134.333 173.212 134.283 174.512 134.25C175.845 134.183 177.145 134.1 178.412 134C179.679 133.9 180.929 133.8 182.162 133.7V138C180.929 137.867 179.679 137.767 178.412 137.7C177.145 137.6 175.845 137.517 174.512 137.45C173.212 137.35 171.845 137.283 170.412 137.25V134.4Z" stroke="black" stroke-width="4" mask="url(#path-1-outside-1_2038_7)"/>
<path d="M207.944 137.9L215.494 137L222.144 149.85C222.344 150.25 222.578 150.55 222.844 150.75C223.111 150.95 223.411 151.083 223.744 151.15C224.111 151.217 224.528 151.25 224.994 151.25H225.344V154H215.394L207.944 137.9ZM203.694 150.75C203.694 150.85 203.778 150.933 203.944 151C204.144 151.033 204.394 151.083 204.694 151.15C204.994 151.183 205.328 151.217 205.694 151.25C206.061 151.25 206.428 151.25 206.794 151.25H207.344V154H191.844V151.25H192.344C193.311 151.25 194.111 151.15 194.744 150.95C195.411 150.717 195.744 150.233 195.744 149.5V123C195.744 122.267 195.411 121.8 194.744 121.6C194.111 121.367 193.311 121.25 192.344 121.25H191.844V118.5H208.744C211.611 118.5 214.028 118.917 215.994 119.75C217.994 120.583 219.528 121.767 220.594 123.3C221.661 124.8 222.194 126.567 222.194 128.6C222.194 130.5 221.744 132.183 220.844 133.65C219.944 135.083 218.644 136.25 216.944 137.15C215.244 138.017 213.161 138.567 210.694 138.8C210.428 138.833 210.144 138.867 209.844 138.9C209.544 138.933 209.228 138.967 208.894 139C208.594 139.033 208.278 139.05 207.944 139.05H202.594V135.95H207.394C208.894 135.95 210.128 135.667 211.094 135.1C212.061 134.5 212.761 133.65 213.194 132.55C213.661 131.45 213.894 130.133 213.894 128.6C213.894 127.133 213.661 125.9 213.194 124.9C212.728 123.867 212.028 123.083 211.094 122.55C210.161 121.983 208.994 121.7 207.594 121.7H203.694V150.75Z" stroke="black" stroke-width="4" mask="url(#path-1-outside-1_2038_7)"/>
<path d="M256.077 142.95V154H227.977V151.25H228.477C229.444 151.25 230.244 151.133 230.877 150.9C231.544 150.667 231.877 150.183 231.877 149.45V123.05C231.877 122.317 231.544 121.833 230.877 121.6C230.244 121.367 229.444 121.25 228.477 121.25H227.977V118.5H254.777V128.3H251.427L250.927 124C250.827 123.367 250.577 122.9 250.177 122.6C249.777 122.267 249.177 122.05 248.377 121.95C247.577 121.817 246.577 121.75 245.377 121.75H239.827V150.75H246.127C247.127 150.75 247.994 150.733 248.727 150.7C249.461 150.633 250.061 150.517 250.527 150.35C250.994 150.15 251.344 149.9 251.577 149.6C251.844 149.3 252.011 148.933 252.077 148.5L252.677 142.95H256.077ZM238.527 134.4C239.961 134.333 241.327 134.283 242.627 134.25C243.961 134.183 245.261 134.1 246.527 134C247.794 133.9 249.044 133.8 250.277 133.7V138C249.044 137.867 247.794 137.767 246.527 137.7C245.261 137.6 243.961 137.517 242.627 137.45C241.327 137.35 239.961 137.283 238.527 137.25V134.4Z" stroke="black" stroke-width="4" mask="url(#path-1-outside-1_2038_7)"/>
<path d="M265.506 154.45C264.173 154.45 263.106 154.083 262.306 153.35C261.506 152.583 261.106 151.6 261.106 150.4C261.106 149.2 261.506 148.233 262.306 147.5C263.106 146.733 264.173 146.35 265.506 146.35C266.873 146.35 267.956 146.733 268.756 147.5C269.556 148.233 269.956 149.2 269.956 150.4C269.956 151.6 269.556 152.583 268.756 153.35C267.956 154.083 266.873 154.45 265.506 154.45Z" stroke="black" stroke-width="4" mask="url(#path-1-outside-1_2038_7)"/>
<path d="M284.164 117.65C284.164 119.383 284.097 121.017 283.964 122.55C283.831 124.083 283.664 125.567 283.464 127C283.264 128.433 283.064 129.933 282.864 131.5C282.664 133.033 282.497 134.683 282.364 136.45C282.231 138.217 282.164 140.2 282.164 142.4H278.064C278.064 140.2 277.997 138.217 277.864 136.45C277.731 134.683 277.564 133.033 277.364 131.5C277.164 129.967 276.964 128.483 276.764 127.05C276.564 125.583 276.397 124.1 276.264 122.6C276.131 121.067 276.064 119.417 276.064 117.65H284.164ZM280.064 154.45C281.464 154.45 282.547 154.083 283.314 153.35C284.114 152.583 284.514 151.6 284.514 150.4C284.514 149.2 284.114 148.233 283.314 147.5C282.547 146.733 281.464 146.35 280.064 146.35C278.731 146.35 277.664 146.733 276.864 147.5C276.064 148.233 275.664 149.2 275.664 150.4C275.664 151.6 276.064 152.583 276.864 153.35C277.664 154.083 278.731 154.45 280.064 154.45Z" stroke="black" stroke-width="4" mask="url(#path-1-outside-1_2038_7)"/>
<path d="M299.008 117.65C299.008 119.383 298.941 121.017 298.808 122.55C298.674 124.083 298.508 125.567 298.308 127C298.108 128.433 297.908 129.933 297.708 131.5C297.508 133.033 297.341 134.683 297.208 136.45C297.074 138.217 297.008 140.2 297.008 142.4H292.908C292.908 140.2 292.841 138.217 292.708 136.45C292.574 134.683 292.408 133.033 292.208 131.5C292.008 129.967 291.808 128.483 291.608 127.05C291.408 125.583 291.241 124.1 291.108 122.6C290.974 121.067 290.908 119.417 290.908 117.65H299.008ZM294.908 154.45C296.308 154.45 297.391 154.083 298.158 153.35C298.958 152.583 299.358 151.6 299.358 150.4C299.358 149.2 298.958 148.233 298.158 147.5C297.391 146.733 296.308 146.35 294.908 146.35C293.574 146.35 292.508 146.733 291.708 147.5C290.908 148.233 290.508 149.2 290.508 150.4C290.508 151.6 290.908 152.583 291.708 153.35C292.508 154.083 293.574 154.45 294.908 154.45Z" stroke="black" stroke-width="4" mask="url(#path-1-outside-1_2038_7)"/>
</svg>
